<svg id="Layer_1" data-name="Layer 1" xmlns="http://www.w3.org/2000/svg" viewBox="0 0 150 150"><defs><style>.cls-1{fill:#ffd23f;}.cls-2{fill:#540d6e;}.cls-3{fill:#3bceac;}</style></defs><g id="Group_1578" data-name="Group 1578"><path id="Path_548" data-name="Path 548" class="cls-1" d="M69.19,16.47A53.52,53.52,0,0,1,55.26,38.81,53.39,53.39,0,0,1,33.44,51.43,51.45,51.45,0,0,1,67.35,86.38a78.79,78.79,0,0,1,36.28-35.22A55.79,55.79,0,0,1,82.6,38,55.69,55.69,0,0,1,69.19,16.47Z"/><path id="Path_549" data-name="Path 549" class="cls-2" d="M55.18,95.07a32.4,32.4,0,0,1-21.74,21.26,31.27,31.27,0,0,1,20.62,21.25,47.93,47.93,0,0,1,22-21.41,33.75,33.75,0,0,1-20.93-21.1Z"/><path id="Path_550" data-name="Path 550" class="cls-3" d="M103.92,79.57a23.59,23.59,0,0,1-15.85,15.5,22.82,22.82,0,0,1,15,15.49A34.88,34.88,0,0,1,119.18,95a24.57,24.57,0,0,1-15.26-15.38Z"/></g></svg>