<svg id="Layer_1" data-name="Layer 1" xmlns="http://www.w3.org/2000/svg" viewBox="0 0 100 100"><defs><style>.cls-1{fill:#3bceac;}</style></defs><path class="cls-1" d="M60.59,49.61l-14.68-8c-.6-.34-2.66.09-2.66.78V58c0,.69,2,1.12,2.64.8l15.33-7.59C61.85,50.85,61.2,50,60.59,49.61Z"/><path class="cls-1" d="M50,3.4A46.6,46.6,0,1,0,96.6,50,46.61,46.61,0,0,0,50,3.4ZM81.33,58A13.38,13.38,0,0,1,68,71.33H33.77A13.38,13.38,0,0,1,20.4,58V42A13.38,13.38,0,0,1,33.77,28.67H68A13.38,13.38,0,0,1,81.33,42Z"/></svg>