<svg id="Layer_1" data-name="Layer 1" xmlns="http://www.w3.org/2000/svg" viewBox="0 0 1505.08 1109.35"><defs><style>.cls-1,.cls-10,.cls-13,.cls-15,.cls-16,.cls-18,.cls-2,.cls-20,.cls-22,.cls-24,.cls-26,.cls-3,.cls-4,.cls-5,.cls-6,.cls-7,.cls-8{fill:none;}.cls-1,.cls-10,.cls-2,.cls-20{stroke:#ee4267;}.cls-1,.cls-2,.cls-3,.cls-4,.cls-5,.cls-6,.cls-7,.cls-8{stroke-miterlimit:10;}.cls-1,.cls-3,.cls-5,.cls-7{stroke-width:2px;}.cls-2,.cls-4,.cls-6,.cls-8{stroke-width:3px;stroke-dasharray:20;}.cls-16,.cls-26,.cls-3,.cls-4{stroke:#d01f3c;}.cls-5,.cls-6{stroke:#53bfa5;}.cls-18,.cls-24,.cls-7,.cls-8{stroke:#54256d;}.cls-9{fill:#fff;}.cls-11,.cls-12,.cls-14,.cls-17,.cls-19,.cls-20,.cls-21,.cls-22,.cls-23,.cls-24,.cls-25,.cls-26,.cls-28{isolation:isolate;}.cls-12,.cls-14,.cls-17,.cls-19{font-size:88px;font-family:SegoeUI-Italic, Segoe UI;}.cls-12,.cls-21,.cls-29{fill:#ee4267;}.cls-12,.cls-14,.cls-17,.cls-19,.cls-20,.cls-21,.cls-22,.cls-23,.cls-24,.cls-25,.cls-26,.cls-28{font-style:italic;}.cls-13,.cls-22{stroke:#53bfa4;}.cls-14,.cls-23{fill:#53bfa4;}.cls-17,.cls-28{fill:#d01f3c;}.cls-19,.cls-25,.cls-30{fill:#54256d;}.cls-20,.cls-21,.cls-22,.cls-23,.cls-24,.cls-25,.cls-26,.cls-28{font-size:59px;font-family:SegoeUIBlack-Italic, Segoe UI;}.cls-26{stroke-width:0.25px;}.cls-27{letter-spacing:0.02em;}</style></defs><g id="Group_1660" data-name="Group 1660"><path id="Path_1139" data-name="Path 1139" class="cls-1" d="M608.46,276.64c23.26-5.57,54.13-7,196.79,31.67,39.92,10.82,69.67,19.7,91.4,26.17,51.29,15.3,61.58,18,81.63,13.78,54.82-11.64,127.7-64.43,122-133.26-4.71-56.64-58.63-105.38-125.66-113.8l2.82-45.68,1.28.15c43.43,5.11,84.19,23.68,114.76,52.27s49.18,65.3,52.34,103.28c8.26,99.32-89.41,167.17-158,181.74-32.07,6.82-50.24,1.4-104.19-14.68-22.69-6.77-50.93-15.19-90.3-25.87-143-38.78-163.3-33.93-174.2-31.32"/><path id="Path_1140" data-name="Path 1140" class="cls-2" d="M976,78.36c81,9.54,141.52,68.93,147,134.75,6.94,83.42-77.31,144.19-140,157.5-37.72,8-51.9-4.49-183.75-40.25-143.26-38.85-168.68-35.52-185.5-31.5"/></g><g id="Group_1660-2" data-name="Group 1660"><path id="Path_1139-2" data-name="Path 1139" class="cls-3" d="M783.75,750.89l3.62,1c101.14,27.42,168,45.53,194.67,38.46,45.77-12.12,110.93-57.44,112.51-120.23,1.48-59-56.39-111.42-110.86-126.12-21.1-5.7-38.69-3.63-163.13,29.76"/><path id="Path_1139-3" data-name="Path 1139" class="cls-3" d="M808.72,529.6c130.87-35.11,153.58-38.73,186.87-29.74,35.35,9.54,70.84,30.91,97.39,58.63,31.93,33.34,48.27,72.33,47.25,112.75-1,39.43-18.54,76.91-50.77,108.39-26.35,25.75-61.24,45.75-95.72,54.88-37.06,9.82-90.44-3.87-218.33-38.53l-3.61-1"/><path id="Path_1140-2" data-name="Path 1140" class="cls-4" d="M814.59,551.67c127.59-34.24,147.63-37.14,175-29.75,59.35,16,129.63,74.06,127.75,148.75-1.83,73.19-72,126.54-129.5,141.75-32,8.47-90.58-7.08-206.5-38.5"/></g><g id="Group_1660-3" data-name="Group 1660"><path id="Path_1139-4" data-name="Path 1139" class="cls-5" d="M829.69,571.28c-25.68,6.89-47.61,12.87-66.5,18-98.45,26.86-118.94,32.46-154.6,24.16-77.78-18.1-158-86.39-157.68-169.35.17-40.65,19-79.36,54.41-112,28.7-26.41,66.29-46.61,103.13-55.42"/><path id="Path_1139-5" data-name="Path 1139" class="cls-5" d="M619.08,321.18c-49.24,11.77-122.2,59-122.47,123.13-.24,59.35,63.31,110.92,122.33,124.65,23.51,5.46,36.63,2.35,132.22-23.74,18.94-5.17,40.94-11.17,66.69-18.08"/><path id="Path_1140-3" data-name="Path 1140" class="cls-6" d="M613.72,299c-61.56,14.72-139.69,70.22-140,145.25-.31,74.77,76.81,132.3,140,147,36,8.37,54.26-.21,210-42"/></g><g id="Group_1660-4" data-name="Group 1660"><path id="Path_1139-6" data-name="Path 1139" class="cls-7" d="M780.34,797.15l-3.61-1c-126.51-34.3-141.21-37.87-165.35-32.1C566.53,774.8,495,817.29,494.17,885.64c-.72,56.58,46.1,110.18,109.31,125.61l-5.22,45.7-2.5-.57c-86.36-19.63-148.3-91.68-147.29-171.33,1.2-94.94,91.73-150.95,152.29-165.43,36.28-8.67,56.48-3.2,187.93,32.44l3.61,1"/><path id="Path_1140-4" data-name="Path 1140" class="cls-8" d="M786.28,775.09C656,739.77,636.93,734.46,606,741.84c-54.7,13.08-133.73,62.89-134.76,143.5-.84,66.8,52.18,131.18,129.5,148.75"/></g><g id="Group_1661" data-name="Group 1661"><g id="Ellipse_3" data-name="Ellipse 3"><circle class="cls-9" cx="977.38" cy="221.38" r="60"/><circle class="cls-10" cx="977.38" cy="221.38" r="59.5"/></g><g id="_1" data-name=" 1" class="cls-11"><text class="cls-12" transform="translate(956.38 258.38)">1</text></g></g><g id="Group_1662" data-name="Group 1662"><g id="Ellipse_3-2" data-name="Ellipse 3-2"><circle class="cls-9" cx="587.38" cy="446.38" r="60"/><circle class="cls-13" cx="587.38" cy="446.38" r="59.5"/></g><g id="_2" data-name=" 2" class="cls-11"><text class="cls-14" transform="translate(564.88 469.38)">2</text></g></g><g id="Group_1663" data-name="Group 1663"><g id="Ellipse_3-3" data-name="Ellipse 3-3"><circle class="cls-15" cx="977.38" cy="671.38" r="60"/><circle class="cls-16" cx="977.38" cy="671.38" r="59.5"/></g><g id="_3" data-name=" 3" class="cls-11"><text class="cls-17" transform="translate(956.38 706.38)">3</text></g></g><g id="Group_1664" data-name="Group 1664"><g id="Ellipse_3-4" data-name="Ellipse 3-4"><circle class="cls-15" cx="587.38" cy="887.38" r="60"/><circle class="cls-18" cx="587.38" cy="887.38" r="59.5"/></g><g id="_4" data-name=" 4" class="cls-11"><text class="cls-19" transform="translate(562.38 922.38)">4</text></g></g><g id="Group_1667" data-name="Group 1667"><g id="Online_Application" data-name="Online Application" class="cls-11"><text class="cls-20" transform="translate(573.94 126.96)">Online</text><text class="cls-20" transform="translate(499.96 205.96)">Application</text></g><g id="Online_Application-2" data-name="Online Application-2" class="cls-11"><text class="cls-21" transform="translate(567.89 127.46)">Online</text><text class="cls-21" transform="translate(493.9 206.46)">Application</text></g></g><g id="Group_1668" data-name="Group 1668"><g id="Aptitude_Examination" data-name="Aptitude Examination" class="cls-11"><text class="cls-22" transform="translate(80.04 415.97)">Aptitude</text><text class="cls-22" transform="translate(22.34 494.97)">Examination</text></g><g id="Aptitude_Examination-2" data-name="Aptitude Examination-2" class="cls-11"><text class="cls-23" transform="translate(76.33 416.68)">Aptitude</text><text class="cls-23" transform="translate(18.63 495.68)">Examination</text></g></g><g id="Group_1666" data-name="Group 1666"><g id="Admission" class="cls-11"><text class="cls-24" transform="translate(705.47 951.38)">Admission</text></g><g id="Admission-2" class="cls-11"><text class="cls-25" transform="translate(699.98 951.38)">Admission</text></g></g><g id="Group_1665" data-name="Group 1665"><g id="Interview_Stage" data-name="Interview Stage" class="cls-11"><text class="cls-26" transform="translate(1194.6 656.38)">Inte<tspan class="cls-27" x="113.71" y="0">r</tspan><tspan x="140.18" y="0">view</tspan></text><text class="cls-26" transform="translate(1249.56 735.38)">Stage</text></g><g id="Interview_Stage-2" data-name="Interview Stage-2" class="cls-11"><text class="cls-28" transform="translate(1189.12 653.87)">Inte<tspan class="cls-27" x="113.71" y="0">r</tspan><tspan x="140.18" y="0">view</tspan></text><text class="cls-28" transform="translate(1244.08 732.87)">Stage</text></g></g><g id="Group_1669" data-name="Group 1669"><g id="Group_346" data-name="Group 346"><path id="Path_305" data-name="Path 305" class="cls-29" d="M878.14,45.17a1.35,1.35,0,0,1,.61-.18,65.53,65.53,0,0,1,7.15.21c4.85.44,16.19,1.45,27.18,9.18a1.31,1.31,0,0,1,.54,1.23l-1.35,10.82q-1.35,10.95-2.73,21.92a1.31,1.31,0,0,1-.77,1c-.94.41-1.86.78-2.73,1.1a55.23,55.23,0,0,1-31.64,1.69,1.31,1.31,0,0,1-1-1.39q1.17-12.81,2.35-25.61.88-9.49,1.75-19A1.29,1.29,0,0,1,878.14,45.17Zm32.8,10.9c-10.22-6.92-20.73-7.86-25.27-8.27-1.88-.16-3.79-.24-5.69-.22q-.81,8.91-1.64,17.83-1.12,12.24-2.24,24.46a52.29,52.29,0,0,0,29-1.84c.61-.22,1.25-.47,1.9-.74q1.32-10.61,2.64-21.18Z"/></g><g id="Group_347" data-name="Group 347"><path id="Path_306" data-name="Path 306" class="cls-29" d="M888.44,61.9h0a11.44,11.44,0,0,1,8.85-1.26,9.67,9.67,0,0,1,6,4.39c2.84,5,.37,12.74-5.08,15.89a10.86,10.86,0,0,1-1.73.8c-4.44,1.58-10.64.39-13.33-4.33-3.18-5.58,1.15-11.67,1.34-11.93A12.93,12.93,0,0,1,888.44,61.9Zm8.44,16.76C901,76.26,903.1,70,901,66.31a7.33,7.33,0,0,0-4.41-3.17,8.9,8.9,0,0,0-6.85,1h0A10.2,10.2,0,0,0,886.58,67c-.15.2-3.55,5-1.19,9.11,2,3.49,6.83,4.35,10.18,3.16a7.76,7.76,0,0,0,1.31-.6Z"/></g><g id="Group_348" data-name="Group 348"><path id="Path_307" data-name="Path 307" class="cls-29" d="M846.73,52.49a1.3,1.3,0,0,1,.43-.15l11.27-2A1.28,1.28,0,0,1,860,51.74l-2.57,30.09A1.3,1.3,0,0,1,856,83h-.13l-11.37-2.1a1.3,1.3,0,0,1-1.06-1.41l2.67-26A1.34,1.34,0,0,1,846.73,52.49Zm10.48.72-8.63,1.52-2.45,23.83,8.77,1.61Z"/></g><g id="Group_349" data-name="Group 349"><path id="Path_308" data-name="Path 308" class="cls-29" d="M850.07,51.9a1.57,1.57,0,0,1,.43-.15l4.59-.81A1.3,1.3,0,0,1,856.6,52a1.36,1.36,0,0,1,0,.35L854,81.22a1.34,1.34,0,0,1-.51.92,1.36,1.36,0,0,1-1,.25l-4.12-.76a1.31,1.31,0,0,1-1.07-1.39l2.11-27.31A1.34,1.34,0,0,1,850.07,51.9Zm3.79,1.9-1.91.34-2,25.13,1.57.29Z"/></g><g id="Group_350" data-name="Group 350"><path id="Path_309" data-name="Path 309" class="cls-29" d="M847.78,26.3a1.38,1.38,0,0,1,.47-.16c.37-.06,9.22-1.25,20.42,4.19,11.51,5.57,12.68,15.4,12.72,15.82a1.3,1.3,0,0,1-.33,1,1.33,1.33,0,0,1-1,.43h-1.27a59.43,59.43,0,0,0-16.62,2.9,1.3,1.3,0,0,1-1.64-.82c-1.36-4-3.12-9.08-4.5-13-1.74-5-6.94-7.51-7.95-8a1.3,1.3,0,0,1-.83-.62,1.33,1.33,0,0,1,.49-1.78ZM878.5,45c-.73-2.68-3.18-8.55-11-12.32a39.88,39.88,0,0,0-14.43-4,15.72,15.72,0,0,1,5.42,7.12c1.24,3.55,2.8,8.06,4.1,11.83A61.93,61.93,0,0,1,878.5,45Z"/></g><g id="Group_351" data-name="Group 351"><path id="Path_310" data-name="Path 310" class="cls-29" d="M858.64,49a.76.76,0,0,1,.18-.09c.78-.3,1.65-.6,2.57-.9a62.1,62.1,0,0,1,17.36-3c.46,0,.9,0,1.35,0,1.87,0,3.82.06,5.8.22,4.85.43,16.19,1.45,27.18,9.18.74.52,1.47,1.07,2.19,1.64A50.45,50.45,0,0,1,929,73.18a1.29,1.29,0,0,1-.19,1.43,55.91,55.91,0,0,1-20.09,14.78c-.93.4-1.85.77-2.72,1.09a55.23,55.23,0,0,1-31.64,1.69l-1.09-.26A68.75,68.75,0,0,1,857.68,86c-.82-.43-1.47-.8-1.94-1.07l-.34-.2a1.29,1.29,0,0,1-.66-1.26L858,50A1.29,1.29,0,0,1,858.64,49Zm67.67,24.55a47.7,47.7,0,0,0-12.66-15.49c-.69-.55-1.38-1.07-2.08-1.56-10.41-7.32-21.26-8.29-25.9-8.71-1.89-.16-3.76-.23-5.57-.22l-1.28,0a59.43,59.43,0,0,0-16.62,2.9c-.59.19-1.16.38-1.69.57L857.42,82.9c.4.23.89.51,1.47.81a66,66,0,0,0,15,5.65c.39.1.75.19,1.1.26A52.64,52.64,0,0,0,905.15,88c.82-.3,1.68-.65,2.57-1A53,53,0,0,0,926.31,73.56Z"/></g><g id="Group_352" data-name="Group 352"><path id="Path_311" data-name="Path 311" class="cls-29" d="M857.63,83.74l.23-.1a1.28,1.28,0,0,1,1,.08,66.43,66.43,0,0,0,15,5.65,1.51,1.51,0,0,1,.45.2L876,90.74a1.29,1.29,0,0,1,.52,1.32c-.06.32-1.65,7.81-10.14,12.7a26.31,26.31,0,0,1-4,1.88c-10.8,4-19,2.62-20.5,2.32a1.28,1.28,0,0,1-1.06-.65,1.31,1.31,0,0,1,.51-1.79,1.11,1.11,0,0,1,.27-.12,17,17,0,0,0,3.16-1.44,13.57,13.57,0,0,0,5.65-5.8c2.11-4.59,4.92-10.84,6.7-14.82A1.34,1.34,0,0,1,857.63,83.74ZM873,91.84a69.52,69.52,0,0,1-14.1-5.18c-1.77,4-4.24,9.45-6.14,13.58a15.81,15.81,0,0,1-6.06,6.57,39.7,39.7,0,0,0,14.74-2.62A23.52,23.52,0,0,0,865,102.5a19,19,0,0,0,8.67-10.17Z"/></g><g id="Group_353" data-name="Group 353"><path id="Path_312" data-name="Path 312" class="cls-29" d="M925.58,69.57a1.25,1.25,0,0,1,.78-.17l14.75,1.52a1.3,1.3,0,0,1,1.16,1.42h0l-.62,5.88a1.31,1.31,0,0,1-.49.89,1.33,1.33,0,0,1-1,.27l-14.85-1.78a1.32,1.32,0,0,1-1.14-1.45h0l.72-5.62A1.28,1.28,0,0,1,925.58,69.57Zm14,3.81-12.18-1.26L927,75.18l12.23,1.46Z"/></g><g id="Group_354" data-name="Group 354"><path id="Path_313" data-name="Path 313" class="cls-29" d="M942.41,68.88c3-1.72,7.71-.2,9.73,3.13a7.78,7.78,0,0,1-4.4,11.3,7,7,0,0,1-6.93-1.88c-2.21-2.38-1.71-5.48-1.46-7s.67-4.13,3-5.52Zm5.68,11.49a5.31,5.31,0,0,0,2.4-3.58,5,5,0,0,0-.57-3.42c-1.3-2.13-4.43-3.25-6.21-2.23L943.06,70l.6,1.15c-1.26.77-1.55,2.54-1.74,3.71s-.54,3.33.8,4.78a4.48,4.48,0,0,0,4.35,1.13,3.79,3.79,0,0,0,1-.42Z"/></g></g><g id="Group_1670" data-name="Group 1670"><g id="Group_346-2" data-name="Group 346-2"><path id="Path_305-2" data-name="Path 305-2" class="cls-30" d="M664.49,1019a1.28,1.28,0,0,1,.61-.18,65.68,65.68,0,0,1,7.15.21c4.84.44,16.18,1.46,27.17,9.18a1.3,1.3,0,0,1,.55,1.23l-1.35,10.82q-1.36,11-2.74,21.92a1.28,1.28,0,0,1-.77,1c-.94.41-1.86.78-2.73,1.1a55.2,55.2,0,0,1-31.63,1.69,1.3,1.3,0,0,1-1-1.39q1.15-12.81,2.35-25.6.87-9.51,1.75-19A1.26,1.26,0,0,1,664.49,1019Zm32.79,10.9c-10.22-6.92-20.72-7.86-25.26-8.27-1.88-.16-3.79-.23-5.69-.22q-.83,8.92-1.64,17.84-1.14,12.23-2.25,24.45a52.28,52.28,0,0,0,29-1.84c.62-.22,1.25-.47,1.9-.74q1.33-10.59,2.64-21.18Z"/></g><g id="Group_347-2" data-name="Group 347-2"><path id="Path_306-2" data-name="Path 306-2" class="cls-30" d="M674.78,1035.74h0a11.44,11.44,0,0,1,8.85-1.26,9.66,9.66,0,0,1,6,4.39c2.84,5,.37,12.74-5.09,15.89a10,10,0,0,1-1.73.8c-4.44,1.58-10.64.39-13.33-4.33-3.17-5.58,1.16-11.67,1.35-11.93A12.89,12.89,0,0,1,674.78,1035.74Zm8.44,16.76c4.15-2.4,6.22-8.63,4.12-12.35a7.25,7.25,0,0,0-4.41-3.16,8.86,8.86,0,0,0-6.85,1h0a10.31,10.31,0,0,0-3.16,2.83c-.15.2-3.54,5-1.19,9.11,2,3.49,6.84,4.36,10.19,3.16a7.66,7.66,0,0,0,1.3-.6Z"/></g><g id="Group_348-2" data-name="Group 348-2"><path id="Path_307-2" data-name="Path 307-2" class="cls-30" d="M633.08,1026.33a1.5,1.5,0,0,1,.42-.15l11.27-2a1.31,1.31,0,0,1,1.53,1.39l-2.58,30.09a1.31,1.31,0,0,1-1.4,1.19l-.13,0-11.37-2.1a1.3,1.3,0,0,1-1.07-1.41l2.68-26A1.28,1.28,0,0,1,633.08,1026.33Zm10.47.72-8.62,1.53-2.45,23.82,8.77,1.62Z"/></g><g id="Group_349-2" data-name="Group 349-2"><path id="Path_308-2" data-name="Path 308-2" class="cls-30" d="M636.42,1025.75a1.26,1.26,0,0,1,.42-.16l4.59-.81a1.3,1.3,0,0,1,1.51,1,1.35,1.35,0,0,1,0,.35l-2.58,28.88a1.29,1.29,0,0,1-.51.92,1.33,1.33,0,0,1-1,.25l-4.13-.76a1.31,1.31,0,0,1-1.06-1.38l2.11-27.32A1.28,1.28,0,0,1,636.42,1025.75Zm3.79,1.89-1.92.34-1.94,25.14,1.56.28Z"/></g><g id="Group_350-2" data-name="Group 350-2"><path id="Path_309-2" data-name="Path 309-2" class="cls-30" d="M634.13,1000.14a1.26,1.26,0,0,1,.46-.16c.37-.05,9.23-1.25,20.42,4.19,11.51,5.58,12.68,15.4,12.73,15.82a1.28,1.28,0,0,1-.33,1,1.31,1.31,0,0,1-1,.43h-1.27a59.86,59.86,0,0,0-16.62,2.9,1.3,1.3,0,0,1-1.64-.81c-1.36-4-3.12-9.09-4.5-13-1.74-5-6.93-7.51-7.94-8a1.29,1.29,0,0,1-.84-.62,1.34,1.34,0,0,1,.49-1.78Zm30.72,18.71c-.74-2.69-3.18-8.56-11-12.33a39.73,39.73,0,0,0-14.43-4,15.62,15.62,0,0,1,5.41,7.11c1.25,3.55,2.81,8.06,4.1,11.83a62.52,62.52,0,0,1,15.88-2.64Z"/></g><g id="Group_351-2" data-name="Group 351-2"><path id="Path_310-2" data-name="Path 310-2" class="cls-30" d="M645,1022.85a.66.66,0,0,1,.19-.09c.78-.3,1.64-.6,2.56-.9a62.17,62.17,0,0,1,17.37-3h1.35c1.86,0,3.82.06,5.79.22,4.85.44,16.19,1.46,27.18,9.18.74.52,1.48,1.07,2.19,1.65A50,50,0,0,1,715.38,1047a1.29,1.29,0,0,1-.18,1.43,56,56,0,0,1-20.1,14.77c-.93.41-1.85.78-2.71,1.09a55.24,55.24,0,0,1-31.64,1.69l-1.1-.26a68.75,68.75,0,0,1-15.63-5.89c-.82-.43-1.47-.8-1.93-1.07l-.35-.2a1.29,1.29,0,0,1-.65-1.26l3.24-33.48A1.31,1.31,0,0,1,645,1022.85Zm67.67,24.55A47.57,47.57,0,0,0,700,1031.91c-.68-.55-1.38-1.07-2.07-1.56-10.41-7.32-21.27-8.29-25.9-8.71-1.89-.16-3.77-.23-5.57-.21-.45,0-.87,0-1.29,0a59.49,59.49,0,0,0-16.62,2.9c-.59.19-1.16.38-1.69.57l-3.09,31.84,1.47.81a66.32,66.32,0,0,0,15,5.65l1.1.25a52.52,52.52,0,0,0,30.17-1.59c.82-.3,1.69-.65,2.58-1A52.88,52.88,0,0,0,712.65,1047.4Z"/></g><g id="Group_352-2" data-name="Group 352-2"><path id="Path_311-2" data-name="Path 311-2" class="cls-30" d="M644,1057.58l.22-.1a1.3,1.3,0,0,1,1,.08,66.07,66.07,0,0,0,15,5.65,1.35,1.35,0,0,1,.44.2l1.65,1.17a1.3,1.3,0,0,1,.53,1.32c-.06.32-1.66,7.81-10.14,12.71a27.2,27.2,0,0,1-4,1.87c-10.81,4-19.05,2.63-20.5,2.33a1.36,1.36,0,0,1-1.07-.65,1.34,1.34,0,0,1,.51-1.8,1,1,0,0,1,.27-.11,17.37,17.37,0,0,0,3.16-1.45,13.6,13.6,0,0,0,5.66-5.8c2.1-4.58,4.91-10.84,6.7-14.82A1.24,1.24,0,0,1,644,1057.58Zm15.38,8.1a69.09,69.09,0,0,1-14.1-5.18c-1.78,4-4.25,9.45-6.15,13.58a15.9,15.9,0,0,1-6.06,6.58A40,40,0,0,0,647.8,1078a24,24,0,0,0,3.59-1.69,19,19,0,0,0,8.66-10.17Z"/></g><g id="Group_353-2" data-name="Group 353-2"><path id="Path_312-2" data-name="Path 312-2" class="cls-30" d="M711.92,1043.41a1.26,1.26,0,0,1,.78-.17l14.75,1.52a1.29,1.29,0,0,1,1.16,1.43h0l-.62,5.87a1.3,1.3,0,0,1-.48.89,1.34,1.34,0,0,1-1,.27l-14.84-1.78a1.29,1.29,0,0,1-1.14-1.45h0l.72-5.62A1.3,1.3,0,0,1,711.92,1043.41Zm14,3.81L713.7,1046l-.39,3.06,12.23,1.47Z"/></g><g id="Group_354-2" data-name="Group 354-2"><path id="Path_313-2" data-name="Path 313-2" class="cls-30" d="M728.75,1042.72c3-1.72,7.71-.2,9.74,3.13a7.79,7.79,0,0,1-2.87,10.63,7.41,7.41,0,0,1-1.53.67,7.06,7.06,0,0,1-6.94-1.88c-2.2-2.38-1.7-5.48-1.46-7s.67-4.14,3-5.53Zm5.68,11.49a5.29,5.29,0,0,0,2.41-3.58,5,5,0,0,0-.58-3.42c-1.29-2.13-4.43-3.25-6.2-2.23l-.65-1.12.6,1.15c-1.27.77-1.55,2.54-1.74,3.72s-.54,3.33.8,4.77a4.5,4.5,0,0,0,4.35,1.14,4.1,4.1,0,0,0,1-.43Z"/></g></g></svg>