<svg id="Layer_1" data-name="Layer 1" xmlns="http://www.w3.org/2000/svg" viewBox="0 0 500 500"><defs><style>.cls-1{fill:none;stroke:#540d6e;stroke-miterlimit:10;stroke-width:2px;}.cls-2{fill:#540d6e;}</style></defs><path class="cls-1" d="M165.84,497.24l-2-.95C119.65,475.52,90.21,447,76.33,411.57s-11.85-77.09,6.1-123.63c22.66-58.75,62.17-106.63,117.43-142.32,20.56-13.29,41.74-20.31,61.23-20.31,19,0,36,6.57,49.22,19,28.33,26.6,31.26,69.59,7.64,112.19-5,9.08-11.35,17.19-17.47,25-3.48,4.47-6.77,8.69-9.84,13.07,32.38-33.58,50.25-66.13,56.09-102,3.59-22.11-.8-41.77-12.36-55.36-11.4-13.41-28.89-20.5-50.58-20.5l-2.42,0c-44,1.08-85.57,18.63-123.46,52.19-67.7,60-97.83,122.17-94.83,195.78.27,6.43-2.9,11.81-5.45,16.13-.87,1.48-1.69,2.88-2.23,4.06l-7.07,15.52L38.24,386.69A43.88,43.88,0,0,0,35,383c-4.07-4.35-9.14-9.76-8.7-17.17.34-5.63.54-11.51.73-17.19.67-19.89,1.37-40.46,7.85-59.54C77.62,163.28,155.12,80.69,265.26,43.67a169.86,169.86,0,0,1,54.06-9.3c39.35,0,73.82,15.73,97.08,44.3,26.41,32.45,35.38,77.24,25.26,126.13-16,76.95-62.16,139.55-137.37,186.05a91.58,91.58,0,0,1-17.92,8.33c-13.55,4.79-25.47,7.11-36.46,7.11-17.46,0-33-6-46.28-17.9-24.67-22.13-32-53.43-20.09-85.88,6.1-16.62,15.83-31.6,25.24-46.09,3.49-5.37,7.09-10.93,10.39-16.39l.39-.64c-30.26,31.3-48.47,61.07-57,93-6,22.38-4.13,41.53,5.36,55.39,9.29,13.57,25.94,22,48.14,24.42a162.91,162.91,0,0,0,17.58,1c39.11,0,76.9-14.63,112.3-43.49,74.44-60.66,107.39-125.49,103.72-204-.28-5.95,0-14.52,5.33-20.13a15.46,15.46,0,0,1,11.47-4.77c4.69,0,9.81,1.74,16.61,5.64l5,2.88v65l-.51,1.53c-2.05,6.17-4,12.61-5.8,18.85-4.15,14.06-8.45,28.59-15,42.23-27.17,56.7-58.53,101.57-95.87,137.16-41.39,39.46-90.86,67.32-147,82.82l-1.3.36Zm94.84-334.19c-12,0-25.8,4.83-40,13.95C168,210.82,132.55,255.16,115.22,308.79c-6.59,20.38-9.22,45.23-7.41,70,3.4,46.52,34.88,78.07,80.19,80.37,2.53.12,5.09.19,7.59.19a149.17,149.17,0,0,0,51.27-9.11c-1.54.21-3.08.41-4.62.59a153.86,153.86,0,0,1-17.38,1h0c-37.55,0-69.45-15.19-87.55-41.66-18.61-27.23-20.94-62.56-6.55-99.48,12.6-32.3,34.2-60.93,55.08-88.62q3-4,6-8c12.34-16.44,27.45-25.49,42.55-25.49a34.88,34.88,0,0,1,23,8.57c9.56,8.22,13.07,18.63,10.45,30.95-2,9.31-7.53,20-18,34.6-17.78,24.88-28,45.24-32.23,64.08-2.58,11.54-.69,22,5.33,29.54S238.75,368,250.25,368a52.56,52.56,0,0,0,11.43-1.31c11.23-2.5,23.54-7.93,34.67-15.3,46.14-30.55,78.31-68.79,95.62-113.65a210.33,210.33,0,0,0,13.49-81.85C403.51,104.27,369.61,72.2,317,72.2c-1.67,0-3.37,0-5.07.1a156,156,0,0,0-45.23,8.64c6.92-.83,13.91-1.41,20.95-1.59,1.06,0,2.12,0,3.16,0,48.43,0,82,28.67,92.07,78.66,11.31,56-32.7,150.35-82.61,177.09-5.49,2.94-12.86,4.56-20.75,4.56-5.17,0-15.07-.72-23.18-5.58A27.6,27.6,0,0,1,243,316.12c-2.14-9.62.69-20.85,8-31.62,4.71-7,9.92-13.6,15-20,6.82-8.66,13.27-16.85,18.46-25.72,16.25-27.8,16.16-51.6-.25-67C278,166,270.07,163.05,260.68,163.05Z"/><path class="cls-2" d="M168.07,487.24C84.26,447.83,57.51,380.36,91.76,291.54,114.21,233.33,153.08,187.73,205.28,154c37.88-24.47,74.58-24.58,98.19-2.41,24.69,23.19,27.43,60.93,5.74,100-7.43,13.39-18.19,24.89-27,37.56-4.67,6.69-8.41,14-12.57,21.08l4.57,4.95c6.54-3,14.59-4.58,19.38-9.37,31.24-31.32,55.7-66.79,63-111.7,8.44-51.93-22.75-88.71-75.48-87.42C231,108,188,129,151.28,161.45,90.46,215.33,49.61,279.66,53.09,365.13c.21,5.11-4.41,10.42-6.79,15.63C42.79,376,36,371,36.31,366.47c1.49-24.85.26-51.1,8.07-74.11C82.75,179.26,152.66,92.07,268.44,53.15,373.59,17.81,454.5,93.52,431.86,202.77,415.4,282.25,367.21,340.19,299,382.35a82.72,82.72,0,0,1-16,7.4c-25.64,9.06-50.76,10.89-72.72-8.81-23.12-20.74-27.26-48-17.38-75,7.93-21.6,22.72-40.73,34.8-60.75,4.66-7.73,10.26-14.89,15.43-22.31L238.82,217c-6.41,2.55-14.43,3.44-19,7.9-30.32,29.75-55.76,63-67,104.94C139.27,380.72,163,416.53,215,422.19s98-12.68,137.28-44.72C419,323,463.88,256.13,459.63,165.22c-.81-17.3,6.77-16.82,18.44-10.12v57.57c-6.66,20-11.26,41-20.31,59.91C408.17,376.07,336.2,455.52,221.21,487.24Zm39.56-386c25.77-4,52.93-11.16,80.25-11.86C334.05,88.17,364,114.87,373.06,160c10.22,50.66-30.8,141.26-77.53,166.3-9,4.82-25.4,4.41-34.08-.79-13.42-8-10.25-23.46-2.21-35.36,10.68-15.82,24.18-29.87,33.76-46.26,19-32.56,17.44-61.07-2-79.36-17.23-16.18-45.15-15.51-75.69,4.11-51.8,33.27-90.57,78.32-109.57,137.12-7.47,23.12-9.65,49.4-7.87,73.77,3.82,52.2,40.47,87.13,89.67,89.62,45.49,2.31,84.48-15,123.22-42.37-25.36,5.26-47.28,11.54-69.63,14.12-80.75,9.32-130.52-50.87-101-126.55,13.29-34.08,37.47-64.51,59.8-94.27,17.16-22.86,37.92-26.64,51.06-15.34,13.76,11.83,8.45,27.54-9.14,52.16-14.58,20.4-28.48,43.71-33.85,67.7-8,35.87,19.91,59.92,55.91,51.9,13.3-3,26.6-9.16,38-16.72,44.67-29.58,80.19-68.53,99.43-118.38a221.33,221.33,0,0,0,14.15-85.84C413.19,95.7,371.05,60,311.52,62.31,272,63.86,237.58,79.69,207.63,101.2Z"/></svg>