<svg id="Layer_1" data-name="Layer 1" xmlns="http://www.w3.org/2000/svg" viewBox="0 0 1751.23 1148.36"><defs><style>.cls-1,.cls-2,.cls-3{isolation:isolate;}.cls-2,.cls-3{font-size:193px;font-family:SegoeUIBlack-Italic, Segoe UI;font-style:italic;}.cls-12,.cls-13,.cls-14,.cls-15,.cls-2,.cls-4,.cls-5,.cls-7{fill:none;}.cls-15,.cls-2{stroke:#3bceac;}.cls-3,.cls-9{fill:#540d6e;}.cls-10,.cls-11,.cls-12,.cls-4,.cls-5,.cls-6,.cls-7,.cls-8,.cls-9{stroke:#540d6e;}.cls-12,.cls-4,.cls-5{stroke-linecap:round;}.cls-12,.cls-4{stroke-linejoin:round;}.cls-4,.cls-5{stroke-width:2px;}.cls-5{stroke-linejoin:bevel;}.cls-6{fill:#3bceac;}.cls-10,.cls-11,.cls-6,.cls-7,.cls-8,.cls-9{stroke-miterlimit:10;}.cls-10,.cls-11,.cls-12,.cls-6,.cls-7,.cls-8,.cls-9{stroke-width:2px;}.cls-8{fill:#ee4266;}.cls-10{fill:#d0103a;}.cls-11{fill:#ffd23f;}.cls-13{stroke:#d0103a;}.cls-13,.cls-14,.cls-15{stroke-width:2px;}.cls-14{stroke:#ee4266;}</style></defs><g id="Group_1643" data-name="Group 1643"><g id="Group_1641" data-name="Group 1641"><g id="Apply_Now_" data-name="Apply Now " class="cls-1"><text class="cls-2" transform="translate(1165.76 367.76)">Apply</text><text class="cls-2" transform="translate(1165.76 567.76)">Now!</text></g><g id="Apply_Now_2" data-name="Apply Now 2" class="cls-1"><text class="cls-3" transform="translate(1157.97 368.04)">Apply</text><text class="cls-3" transform="translate(1157.97 568.04)">Now!</text></g></g><g id="Group_1640" data-name="Group 1640"><g id="Group_1595" data-name="Group 1595"><g id="Group_1584" data-name="Group 1584"><g id="Group_1581" data-name="Group 1581"><path id="Path_552" data-name="Path 552" class="cls-4" d="M847.54,741.13c68.88-134.42,16.53-274.85-86.36-327.19-113.11-58.79-267.5-29.51-331.81,91-63.36,127-36.79,299,105,345.63C645.48,887.16,778.66,875.55,847.54,741.13Z"/></g><g id="Group_1582" data-name="Group 1582"><path id="Path_553" data-name="Path 553" class="cls-5" d="M680.66,497.2c-9.2-28.64-40.08-43.22-60.93-62.83-19.19-17.67-36.16-29.09-56.82-38.24a233.61,233.61,0,0,0-75.39,39.25c7-2,13.66-5.11,20.54-1.16-2.21,1.34-4.28,4.59-7.68,5.63,6.06-1.63,13.88-5.34,18.76-2.24,0,0-14.27,44.77-15,50.24-.13,13.14,19,34.83-.53,42.54,27.65,22.56-1.6,19.05-19,23.51-4.14,1.49-5.31,6.21-9.15,6.51-5.76.45-12-4.86-16.55-4.11-17.27,1.35-4.86,7-3.37,16.1,2.38,10.63-9.73,13.9-12.22,26.45-.73,5.47-1,16.69-1.59,24.09s2.83,16.38-1.15,24.81c-2.65,5.61-13,11.83-17.11,18.34-2.35,4.43-8.56,4.14-5,10,1.92,4.88,22,4.85,27,4.85,13.15.12,7.83,1.31,13.44-6.08,4.56-5.77,4.11-11.53,11.35-17.89s13.71-12.28,19-18.49c7.82-8.73,2.94-11.82,15.65-7.4,8.72,2.79,8.28,7.08,17.14,6.76,6.2.29,12.55-2.52,18.31-3,4-8.43,15.05-10.07,20.66-17.46,9.88-12,2.49-12.56-3.57-21-5.19-6.94-5.78-14.62-11.7-21.11s-19.22-8.53-13-18.3a3.18,3.18,0,0,0-1.77,2.07c-6.24-30.41,38.41,7,51,4.51,9.89-1.93,24.5-12.73,34.24-16.59,16.09-6.67,18.45-6.08,33.68.85,10.78,4.56,24.52,7.35,34.11-3.45C694.6,532,685.26,511.52,680.66,497.2Z"/><path id="Path_554" data-name="Path 554" class="cls-5" d="M872.37,603l-14.46,5c-9.68-15-60.37-19.86-78.32-23-19.79-2.93-46.66-1.51-30.31,25.91,6.84,14.3,27.64,18.06,31.78,33.53-13.61,4-30.72-.12-43.29-5.53,2.49,7.23,11.2,11.12,19.6,11.32-26.07,10.65,10.81,27.9-.48,37.27-7.74,7.19-38-30.19-32.24,3.74-5.86-3.21-13.25-2.57-18.11-4.93-8.72-3.89-8.2-8.6-15.07-12.65-9.88-6.58-28.31-15.21-41.24-14.08-10.08,1.81-10.87,35.38-8.9,47.31.48,5.54-7.27,12.73-6.78,18.28.64,7.39,5.82,13.45,9.16,19.67,4.5,8.91,16.87,22.73,15,33.13-.52,4.7-10.44,8.35-12.65,15.06-2.56,13.26,7.52,11.45,8.16,18.84,1.78,20.31-12.64,15.06-23.44,30-15.69,22.78,5.11,26.55,23.94,18.39,16.14-7,31.64-21.38,31-39,10.92-2.81,24.5,3.45,33.42-1.06s15-19.92,17.05-28.47c2.08-18.8-10.71-54.62-1.08-72.21,6.42-11.73,14.69-23.62,28.75-11.82-7.43,10.89,8.12,15.73-1.47,23.08,10.88,7.43,8.76,49.81,26,33.42,12-12.21-19.53-31.8,17.86-19.24-1.09-23.18-45.3-7.22-27.56-38.55,7.26-12.73,21.1,13.69,34.36,16.25,4.7.53,6,5.06,13.57,6.27,4.7.51,22.29-3.21,24.85,4.19,20.95-44,29.14-88.49,26.94-130.11A9.87,9.87,0,0,0,872.37,603Z"/><path id="Path_555" data-name="Path 555" class="cls-5" d="M534.31,850.58a363.94,363.94,0,0,0,63.91,14.95c.33-2.46,1.78-5.22,5-8.5-8-6.73-19.88-8.88-26.94-16.75-8.21-8.84-1.84-21.07-15.4-30.5,14.19-7.61,19.23-22.91-2.21-25.28-7.46-.41-30.54,27.08-28.72-.68-20.47-3.52-42.17,15.36-55.69-5.75-6.09-9,.08-23.36-7.15-33.34s-16.45-6-23.32-11.76c-11.46-9.62-11.6-23.4-29.6-22.89-2.84.25-5.32,1.67-7.71,3.48C423.86,775.77,465.52,827.94,534.31,850.58Z"/><path id="Path_556" data-name="Path 556" class="cls-5" d="M818.27,512.41c14.89,12.5,17.14,26.09,32.63,33.24,4.1,1.76,11,3.63,18.93,5-16.75-60.2-56.07-110-108.65-136.73A263,263,0,0,0,659.1,385.32c9.57,4.65,20.11,7.52,30.16,11C712.4,406,715.83,408.84,724,429.35c1.7,7.29-3.29,10.9,1.65,19,6.1,9,18.92,10,27.9,15.61,8,6.73,13.93,13.65,21,21.52C788.27,497,803.57,502,818.27,512.41Z"/></g><g id="Group_1583" data-name="Group 1583"><path id="Path_557" data-name="Path 557" class="cls-4" d="M768.34,417.92c-5.77,6.87-13.82,11.82-21.88,16.77"/><path id="Path_558" data-name="Path 558" class="cls-4" d="M778.83,428.68c-8.83,8.19-16.71,15.25-26.87,20.38"/><path id="Path_559" data-name="Path 559" class="cls-4" d="M740.28,469.06a199.19,199.19,0,0,1-36.95,15.74"/><path id="Path_561" data-name="Path 561" class="cls-4" d="M758.39,484.43c-15.34,6.64-32.42,17.68-47.76,24.33"/><path id="Path_562" data-name="Path 562" class="cls-4" d="M491,660.42c38.5-8.66,77.79-20.58,114.6-36.53"/><path id="Path_563" data-name="Path 563" class="cls-4" d="M725.74,555.87c14.19-7.6,28.38-15.21,43.72-21.86"/><path id="Path_564" data-name="Path 564" class="cls-4" d="M816.07,454.08c-.23,9.56-5.81,18.54-12.73,24.45"/><path id="Path_565" data-name="Path 565" class="cls-4" d="M801.37,443.69l-8.1,16.62"/><path id="Path_566" data-name="Path 566" class="cls-4" d="M833.64,536.73c-7.84,15.18-19.25,28.85-31.45,41.76"/><path id="Path_567" data-name="Path 567" class="cls-4" d="M787.77,559.15C779.89,566.2,772,573.25,764,578.2"/><path id="Path_568" data-name="Path 568" class="cls-4" d="M746.2,614.05c-20.74,17.73-39.55,33.16-65.05,44.94"/><path id="Path_569" data-name="Path 569" class="cls-4" d="M849.31,737.69c-21.92,28.45-50.35,55.33-84.09,70"/><path id="Path_570" data-name="Path 570" class="cls-4" d="M580,830.93c36.59-6.38,29.1-6.24,64-19.9"/><path id="Path_571" data-name="Path 571" class="cls-4" d="M586.58,802.14c17.45-6.83,35.85-14.8,53.3-21.63"/><path id="Path_572" data-name="Path 572" class="cls-4" d="M404.07,682.12c18.29,27,30.88,37.62,63.58,47.51"/><path id="Path_573" data-name="Path 573" class="cls-4" d="M488.28,741.09c14.33,6.18,30.77,12.17,45.89,15.09"/><path id="Path_574" data-name="Path 574" class="cls-4" d="M527.91,739.22c54,10.15,86.66,6.64,106.16-7.25"/><path id="Path_575" data-name="Path 575" class="cls-4" d="M516.78,666.44c12.82,1,25.28-2.21,38.88-4.45"/><path id="Path_576" data-name="Path 576" class="cls-4" d="M606.18,639c10.35-3,18.4-8,27.61-12"/><path id="Path_577" data-name="Path 577" class="cls-4" d="M657.05,387.77c-11.3,4.17-22.25,12.55-29.94,21.71"/><path id="Path_578" data-name="Path 578" class="cls-4" d="M620.73,382c-12.09,7.42-21.7,18.87-32.64,27.25"/><path id="Path_579" data-name="Path 579" class="cls-4" d="M501.8,460.88c-29.57,25.92-53.64,66.22-69.65,101.58"/><path id="Path_580" data-name="Path 580" class="cls-4" d="M435.62,532.93a25.28,25.28,0,0,0-6.18,14.33"/><path id="Path_581" data-name="Path 581" class="cls-4" d="M432.19,582.75c-8.69,22-13.95,46.85-12.89,71.16"/><path id="Path_582" data-name="Path 582" class="cls-4" d="M471.8,540.84c7.09-3.8,11.89-9.52,17.85-14.29"/><path id="Path_583" data-name="Path 583" class="cls-4" d="M646.8,441.79c14.2-7.6,30.68-13.29,45.05-18.79"/><path id="Path_584" data-name="Path 584" class="cls-4" d="M826.37,467.92c5.78,14.77,3.43,26.65-1.49,42.36"/><path id="Path_585" data-name="Path 585" class="cls-4" d="M788.4,434.4c1.28,4.38-.85,10.85-4.1,14.73"/><path id="Path_586" data-name="Path 586" class="cls-4" d="M759.78,415.33c-7.95,1.59-16.56,5.93-25.16,10.28"/><path id="Path_587" data-name="Path 587" class="cls-4" d="M707.52,442.28c-11.74,2-19.88,9.71-29.32,15"/><path id="Path_588" data-name="Path 588" class="cls-4" d="M839.77,549a115.06,115.06,0,0,1-16.87,34.63"/><path id="Path_589" data-name="Path 589" class="cls-4" d="M855.12,545.22c2.22,15.08-8.4,37.58-16.23,50.84"/><path id="Path_590" data-name="Path 590" class="cls-4" d="M870.86,558.44c-5.89,14.89-9.18,28.66-16,42.73"/><path id="Path_591" data-name="Path 591" class="cls-4" d="M440.48,513c13.52-20.05,25.77-44.48,44.14-60.45"/><path id="Path_592" data-name="Path 592" class="cls-4" d="M667.47,396.51c-7,2.41-12.83,7.41-17.72,13.23"/><path id="Path_593" data-name="Path 593" class="cls-4" d="M640.11,381.82c-14.62,7.56-27,20.32-38.53,32.11"/><path id="Path_594" data-name="Path 594" class="cls-4" d="M652.85,424.74c9.93-9.85,22.76-17.26,35.74-22.89"/><path id="Path_595" data-name="Path 595" class="cls-4" d="M745.05,411.23c-6.33-.36-13.3,2-19.31,5.27"/><path id="Path_596" data-name="Path 596" class="cls-4" d="M645.91,752.39c-21.59,10-45,20.1-68,23.91"/><path id="Path_597" data-name="Path 597" class="cls-4" d="M838.56,730c-17.44,26.69-45.24,48-76.71,57.91"/><path id="Path_598" data-name="Path 598" class="cls-4" d="M719.3,448.2c-12.36,10.74-28.66,18.18-42.34,26.49"/><path id="Path_599" data-name="Path 599" class="cls-4" d="M452.26,541.46c6.7-15.86,25.42-38.16,41.5-49.45"/><path id="Path_600" data-name="Path 600" class="cls-4" d="M406.8,674.37c8.07,10.08,17.92,20,29.09,24.42"/><path id="Path_601" data-name="Path 601" class="cls-4" d="M572.58,596.18c30.7-18.85,62.65-23.43,98-30.12"/><path id="Path_602" data-name="Path 602" class="cls-4" d="M806.82,449.86c-1.82,10-9.14,18.77-14.68,27.34"/><path id="Path_603" data-name="Path 603" class="cls-4" d="M822.49,464.66c-6,13.11-5.6,21.44-12.61,33.74"/><path id="Path_604" data-name="Path 604" class="cls-4" d="M802.31,523.76c-10.73,10.82-23.4,20-36.08,29.21"/><path id="Path_605" data-name="Path 605" class="cls-4" d="M771.7,504.5c-14.46,9.35-28.92,18.7-43.54,26.26"/><path id="Path_606" data-name="Path 606" class="cls-4" d="M731.5,606.55c-27.32,18-54.27,31.29-84.88,42.94"/><path id="Path_607" data-name="Path 607" class="cls-4" d="M731.06,574.57c-22.19,18.73-53.7,24.6-79.17,37"/><path id="Path_608" data-name="Path 608" class="cls-4" d="M445,705.76c19.19,9.65,41.72,12.75,62.69,16,33.23,4.92,67,3.14,100.52-2.52"/><path id="Path_609" data-name="Path 609" class="cls-4" d="M473.05,692c41.73,8.46,91.39,9.2,133,3.23"/><path id="Path_610" data-name="Path 610" class="cls-4" d="M550.57,680.92c18.18-2,36.51-6.7,54.55-10.23"/><path id="Path_611" data-name="Path 611" class="cls-4" d="M478.18,755.7c17.56,16.72,59.95,22.68,82.33,20.73"/><path id="Path_612" data-name="Path 612" class="cls-4" d="M599.77,844.93c8.12.9,14.91-1.31,22.27-3"/><path id="Path_613" data-name="Path 613" class="cls-4" d="M763.16,749.07c-5.07,9.57-16.14,18.06-26.51,22.18"/><path id="Path_614" data-name="Path 614" class="cls-4" d="M761,718.66c-5.83,7-12.91,11.87-19.91,17.84"/><path id="Path_615" data-name="Path 615" class="cls-4" d="M677.16,846c32.28-4.08,62-12.61,91.68-27.49"/><path id="Path_616" data-name="Path 616" class="cls-4" d="M726.58,815c6.89-3.56,14.24-6.75,21.59-9.93"/></g></g><g id="Group_1594" data-name="Group 1594"><g id="Group_1585" data-name="Group 1585"><path id="Path_617" data-name="Path 617" class="cls-4" d="M1094.41,127.25c-109.79-.19-239.08,89.69-288.88,183"/><path id="Path_618" data-name="Path 618" class="cls-4" d="M1099.67,142.91c-120,57.76-179.22,179.86-195.25,306.82"/><path id="Path_619" data-name="Path 619" class="cls-4" d="M1083.34,131.67c-29,17.7-65.94,21.18-96.27,39.61C921.22,211,865.32,284,847.15,358.13"/><path id="Path_620" data-name="Path 620" class="cls-4" d="M1084.45,142.86c-83.91,34.48-169.08,103.4-193.18,194.31"/><path id="Path_621" data-name="Path 621" class="cls-4" d="M726,321.31c-7.48-36.2,78.53-39.33,72,8"/><path id="Path_622" data-name="Path 622" class="cls-4" d="M775.47,336.42c14.36-15.75,36.91,7.57,36.88,25.85"/><path id="Path_623" data-name="Path 623" class="cls-4" d="M804.49,342.91c5.75-13.61,24.74-10.72,33.33-.68"/><path id="Path_624" data-name="Path 624" class="cls-4" d="M827,366.23c14.35-15.75,43,19.76,20,37.65"/><path id="Path_625" data-name="Path 625" class="cls-4" d="M928.68,474.93c-5-26.16-49-38-62.69-13.33"/><path id="Path_626" data-name="Path 626" class="cls-4" d="M884.28,449.44c10.07-33-44.4-31.59-60.91-12.26"/><path id="Path_627" data-name="Path 627" class="cls-4" d="M827.36,398.12c14.7-2.13,31.52,10.43,29.36,26.2"/><path id="Path_628" data-name="Path 628" class="cls-4" d="M849.14,461.22c11.12-4.28,26.16,1.11,25.07,15.08"/><path id="Path_629" data-name="Path 629" class="cls-4" d="M946.59,485.71c-1.78-13.26-30.45-12.22-33.33.67"/><path id="Path_630" data-name="Path 630" class="cls-4" d="M740.35,342.11c3.26-29.74-49.4-39.48-67-18.36"/><path id="Path_631" data-name="Path 631" class="cls-4" d="M728.13,372.56c12.2-12.17,55.56-15.34,47.64,14"/><path id="Path_632" data-name="Path 632" class="cls-4" d="M762.87,383.71c10-2.5,19.71,5.75,20.77,16.15"/><path id="Path_633" data-name="Path 633" class="cls-4" d="M779.71,390.18c8.25-9.67,28-3.91,33,10.07"/><path id="Path_634" data-name="Path 634" class="cls-4" d="M692,349.58c-10-40.15-77.38-17.3-71.34,19.26"/><path id="Path_635" data-name="Path 635" class="cls-4" d="M928.66,493.21c32.26-5,30.05,41.25,4.23,53.76"/></g><g id="Group_1593" data-name="Group 1593"><g id="Group_1591" data-name="Group 1591"><g id="Group_1587" data-name="Group 1587"><path id="Path_636" data-name="Path 636" class="cls-4" d="M1114.83,140.15l-5.49-22.09-15.76-1.89,8.21,33Z"/><g id="Group_1586" data-name="Group 1586"><path id="Path_637" data-name="Path 637" class="cls-4" d="M1094.82,121.16l5.85,23.54c-12.45,16.65-50,1.4-50,1.4C1077.21,111.4,1094.82,121.16,1094.82,121.16Z"/><path id="Path_638" data-name="Path 638" class="cls-4" d="M1099.75,141l-4-16.15c-8.07.77-21.17,4.05-29,16.63C1066.69,141.48,1080.94,148.93,1099.75,141Z"/></g></g><path id="Path_639" data-name="Path 639" class="cls-4" d="M1145.18,94.77s-21.73-22.16-68-11c0,0-12.57,3.92-7,4.69,26.43,3.6,33.78,20.23,33.78,20.23Z"/><path id="Path_640" data-name="Path 640" class="cls-4" d="M1157.44,144.05s-8.82,29.76-54.94,41.59c0,0-13,2.42-8.37-.86,21.66-15.57,20.36-33.71,20.36-33.71Z"/><path id="Path_641" data-name="Path 641" class="cls-4" d="M1219.53,124.08l-3.11-20.86-7-19.88-8.38-17-59.78,24.18,6.22,13.64,5.36,14.84,2.22,15.62.89,15,64.14-6.64Z"/><path id="Path_642" data-name="Path 642" class="cls-4" d="M1216.42,103.22l-7-19.88-61.94,20.86,5.36,14.84,2.22,15.62,64.49-10.58Z"/><g id="Group_1588" data-name="Group 1588"><path id="Path_643" data-name="Path 643" class="cls-4" d="M1141.24,90.56l-40.42,15.31,6.29,11.29,40.35-13Z"/><path id="Path_644" data-name="Path 644" class="cls-4" d="M1155,134.66l-41.72,7.46-.27,12.92,42.88-5.41Z"/></g><path id="Path_645" data-name="Path 645" class="cls-4" d="M1152.82,119l-5.36-14.84-40.35,13,4.29,12.19,1.92,12.78,41.71-7.46Z"/><path id="Path_646" data-name="Path 646" class="cls-4" d="M1086.64,135.44c.49,2,4.85.91,4.85.91l55.3-13.75-1-4-55.44,13.78S1086.15,133.47,1086.64,135.44Z"/><g id="Group_1589" data-name="Group 1589"><path id="Path_647" data-name="Path 647" class="cls-4" d="M1209.4,83.34,1265.49,91S1227.16,59.88,1201,66.38Z"/><path id="Path_648" data-name="Path 648" class="cls-4" d="M1265.49,91l-46,33.06.54,18.91C1246.21,136.49,1265.49,91,1265.49,91Z"/></g><path id="Path_649" data-name="Path 649" class="cls-4" d="M1265.49,91s-30-14.17-56.09-7.68l7,19.88,3.11,20.86C1245.67,117.58,1265.49,91,1265.49,91Z"/><g id="Group_1590" data-name="Group 1590"><path id="Path_650" data-name="Path 650" class="cls-4" d="M1211.06,104.55a26.94,26.94,0,1,0-19.64,32.65h0a26.94,26.94,0,0,0,19.64-32.65ZM1166,115.77A19.51,19.51,0,1,1,1189.63,130h0A19.53,19.53,0,0,1,1166,115.77Z"/><path id="Path_651" data-name="Path 651" class="cls-4" d="M1190.23,132.44a22,22,0,1,1,16.07-26.7,22,22,0,0,1-16.07,26.7Z"/></g></g><g id="Group_1592" data-name="Group 1592"><path id="Path_652" data-name="Path 652" class="cls-4" d="M1261,91.92c-7,10.42-21.79,16.81-33,21.33"/><path id="Path_653" data-name="Path 653" class="cls-4" d="M1254.87,107.06c-2,4-6.12,8.2-9,11.63-5.6,6.34-11.25,12.45-18.89,16.57"/><path id="Path_654" data-name="Path 654" class="cls-4" d="M1215.89,128.38c1.1,3.43.75,9-.36,12.46-6.41-1.87-16.13.79-23.18,1.31-9.2.8-18.93.5-28.24,1.83"/><path id="Path_655" data-name="Path 655" class="cls-4" d="M1152.06,138.32c-.35,2.56-.06,5.7-.42,8.26-10.42-.13-21.25,3.06-31.85,3.22"/><path id="Path_656" data-name="Path 656" class="cls-4" d="M1144.59,107.27a43.84,43.84,0,0,1,6.6,24.58"/><path id="Path_657" data-name="Path 657" class="cls-4" d="M1148.84,154.21c-9.32,2.31-19.28,3.06-28.77,3.69-3,6.69-8.41,15.94-14.87,19.78"/><path id="Path_658" data-name="Path 658" class="cls-4" d="M1080.91,87c13.28-3.29,34.13-4,46.58,2.28"/><path id="Path_659" data-name="Path 659" class="cls-4" d="M1181.84,92.36c6.08,1.59,13.24,7.56,18.83,11.33"/><path id="Path_660" data-name="Path 660" class="cls-4" d="M1178.8,94.67c8.39,2.56,16.77,9.26,23.81,14.74"/><path id="Path_661" data-name="Path 661" class="cls-4" d="M1176.73,98.8c8.39,4.63,16.64,10.84,25.14,16"/><path id="Path_662" data-name="Path 662" class="cls-4" d="M1171.25,101.71c9.85,4.27,21.51,11.7,30.5,18.76"/></g></g></g></g><path id="Path_1013" data-name="Path 1013" class="cls-6" d="M315.9,298.86l6.61,7.64,10-1.11L327.32,314l4.17,9.21L321.65,321l-7.47,6.8-.85-10.07-8.78-5,9.31-3.92Z"/><path id="Path_1014" data-name="Path 1014" class="cls-7" d="M1000.94,496.39l.87,5.9,5.34,2.64-5.34,2.64-.85,5.9-4.17-4.27-5.87,1,2.77-5.28-2.78-5.27,5.88,1Z"/><path id="Path_1015" data-name="Path 1015" class="cls-7" d="M489.11,227.86l.86,5.9,5.35,2.63L490,239l-.86,5.9L485,240.67l-5.87,1,2.77-5.28-2.78-5.27,5.88,1Z"/><path id="Path_1016" data-name="Path 1016" class="cls-8" d="M577.21,257.91l.86,5.9,5.34,2.63-5.34,2.64-.85,5.9-4.17-4.27-5.87,1,2.77-5.29-2.77-5.27,5.87,1Z"/><path id="Path_1017" data-name="Path 1017" class="cls-7" d="M364.88,716.44l.86,5.9,5.34,2.63-5.34,2.64-.85,5.9-4.16-4.27-5.87,1,2.77-5.28-2.78-5.27,5.87,1Z"/><path id="Path_1018" data-name="Path 1018" class="cls-9" d="M929.36,224.83l1.46,10,9.06,4.47-9,4.47-1.45,10-7.06-7.23-10,1.71,4.69-8.94-4.7-8.95,9.95,1.7Z"/><path id="Path_1019" data-name="Path 1019" class="cls-6" d="M393,784.44l1.46,10,9.06,4.47-9.05,4.47-1.45,10-7.06-7.22L376,807.86l4.7-9L376,790l10,1.7Z"/><path id="Path_1020" data-name="Path 1020" class="cls-10" d="M111.9,484.56l1.47,10,9.06,4.47-9.06,4.47-1.45,10-7-7.23-10,1.71,4.7-8.94-4.7-8.94,10,1.7Z"/><path id="Path_1021" data-name="Path 1021" class="cls-7" d="M565.16,962.49l1.47,10,9.06,4.47-9.06,4.48-1.44,10-7.06-7.23-10,1.71,4.7-8.95-4.7-8.94,10,1.7Z"/><path id="Path_1023" data-name="Path 1023" class="cls-8" d="M1005.71,840.81l-1.85,9.93,7.13,7.15-10,1.31-4.6,9L992,859.07l-10-1.59,7.34-7-1.57-10,8.87,4.83Z"/><path id="Path_1025" data-name="Path 1025" class="cls-11" d="M977.17,603l1.46,10,9.06,4.47-9.05,4.47-1.45,10-7.06-7.23-10,1.72,4.7-8.95-4.71-8.94,10,1.7Z"/><path id="Path_1026" data-name="Path 1026" class="cls-12" d="M390.06,426.7c-5.27,2.63-10.54,5.27-2.63,2.63"/><path id="Path_1027" data-name="Path 1027" class="cls-12" d="M305.73,566.38c-2.64,2.63-2.64,0-2.64-2.64"/><path id="Path_1028" data-name="Path 1028" class="cls-12" d="M168.68,374c-5.27,0-2.64-2.64,0-2.64"/><path id="Path_1029" data-name="Path 1029" class="cls-12" d="M405.88,236.93c0-2.63,0-2.63,2.63-5.27"/><path id="Path_1030" data-name="Path 1030" class="cls-12" d="M551.41,231.89c-2.64,5.28-2.64,2.64,0,0"/><path id="Path_1031" data-name="Path 1031" class="cls-12" d="M960,270.12h0"/><path id="Path_1032" data-name="Path 1032" class="cls-12" d="M940.89,695.52v2.64"/><path id="Path_1034" data-name="Path 1034" class="cls-12" d="M542.92,927.45c-2.63,2.63-2.63,0-2.63-2.64"/><path id="Path_1035" data-name="Path 1035" class="cls-12" d="M353.17,832.57c-2.64,0-2.64,0,0-2.64"/><path id="Path_1036" data-name="Path 1036" class="cls-12" d="M226.66,951.17c-2.64,2.63-2.64,2.63-5.27,0"/><path id="Path_1037" data-name="Path 1037" class="cls-12" d="M89.61,753.5c2.64,0,5.27-2.63,7.91-2.63"/><path id="Path_1039" data-name="Path 1039" class="cls-12" d="M47.44,413.52h0"/><line id="Line_8" data-name="Line 8" class="cls-12" y1="677.07" y2="677.07"/><line id="Line_9" data-name="Line 9" class="cls-12" x1="79.07" y1="1043.41" x2="81.7" y2="1040.78"/><path id="Path_1042" data-name="Path 1042" class="cls-12" d="M872.37,864.19c2.63-2.63,5.27-2.63,7.9-5.27"/><line id="Line_10" data-name="Line 10" class="cls-12" x1="911.9" y1="540.02" x2="914.54" y2="537.39"/><line id="Line_11" data-name="Line 11" class="cls-12" x1="875" y1="258.02" x2="877.64" y2="255.38"/><path id="Path_1043" data-name="Path 1043" class="cls-12" d="M782.76,482h0"/><path id="Path_1044" data-name="Path 1044" class="cls-12" d="M593.58,313.6c-2.64,0-2.64-2.64,0-2.64"/><path id="Path_1045" data-name="Path 1045" class="cls-12" d="M538.23,173.91c-2.64,2.64-2.64,2.64-2.64,5.27"/><path id="Path_1046" data-name="Path 1046" class="cls-12" d="M535,403h-5.27"/><path id="Path_1048" data-name="Path 1048" class="cls-12" d="M413.78,323.91h-2.63"/><path id="Path_1050" data-name="Path 1050" class="cls-12" d="M409.18,585.89c2.63,0,2.63,0,2.63-2.63"/><path id="Path_1051" data-name="Path 1051" class="cls-12" d="M567.22,131.75c-2.63,0-2.63,0-2.63-2.64"/><line id="Line_12" data-name="Line 12" class="cls-12" x1="419.05" y1="392.43" x2="416.42" y2="392.43"/><path id="Path_1054" data-name="Path 1054" class="cls-12" d="M355.8,403c2.64-2.63-2.63,2.64-2.63,2.64"/><path id="Path_1055" data-name="Path 1055" class="cls-12" d="M216.12,537.39c0-2.64,2.64-2.64,5.27,0"/><line id="Line_13" data-name="Line 13" class="cls-12" x1="271.46" y1="729.78" x2="274.1" y2="727.15"/><path id="Path_1057" data-name="Path 1057" class="cls-12" d="M411.15,829.93h0"/><line id="Line_14" data-name="Line 14" class="cls-12" x1="295.18" y1="874.74" x2="295.18" y2="872.1"/><path id="Path_1058" data-name="Path 1058" class="cls-12" d="M490.21,909c-5.27,0,0,2.64,2.64,2.64"/><path id="Path_1059" data-name="Path 1059" class="cls-12" d="M603.54,956.44v2.63"/><line id="Line_15" data-name="Line 15" class="cls-12" x1="822.29" y1="885.28" x2="822.29" y2="885.28"/><path id="Path_1063" data-name="Path 1063" class="cls-12" d="M756.41,1009.15q3.95,4,7.9,0"/><path id="Path_1066" data-name="Path 1066" class="cls-12" d="M896.09,811.48a2.58,2.58,0,0,0,2.63-2.52v-.11"/><path id="Path_1070" data-name="Path 1070" class="cls-12" d="M872.37,545.3v-2.64"/><path id="Path_1071" data-name="Path 1071" class="cls-12" d="M917.17,592.73c-7.9,7.91-5.27,5.28,0-2.63"/><path id="Path_1072" data-name="Path 1072" class="cls-12" d="M954.07,521.57a2.58,2.58,0,0,1,2.52-2.63h.12"/></g><g id="Group_1642" data-name="Group 1642"><g id="Group_1628" data-name="Group 1628"><path id="Path_1079" data-name="Path 1079" class="cls-13" d="M1124.62,541.85c-111.76,48.2-201.86,156-232.59,279.55-36.16,145.29,26.15,246.59,36.34,262.5"/><path id="Path_1080" data-name="Path 1080" class="cls-13" d="M903.07,1087.59a23.12,23.12,0,0,1,13.45-4.37c7.72.22,12.54,5.14,14.36,3.42,2.17-2.06-4.67-9.12-3-18.11a18.21,18.21,0,0,1,4.34-8.52"/></g><g id="Group_1629" data-name="Group 1629"><path id="Path_1081" data-name="Path 1081" class="cls-14" d="M1355.05,660.44c7.25,34.28,1,53.56-6.78,65-15,22.12-38.46,19.12-49.08,41.74-9.42,20.07,5.56,29.82-2.88,51.6-11,28.51-41.43,24-54.62,52.62-12.48,27.07,7.76,46.29-6.31,67-13,19.16-35,9.37-46.33,27.74-14,22.66,9.91,52.75-4.68,69.51-8.24,9.46-20.19,4.82-31.28,18.29-6,7.25-8.23,15.55-9.23,21"/><path id="Path_1082" data-name="Path 1082" class="cls-14" d="M1130.72,1057a23.06,23.06,0,0,1,7.8,11.79c1.85,7.5-1.6,13.46.54,14.75,2.57,1.54,7.55-6.93,16.66-7.7a18.23,18.23,0,0,1,9.37,1.91"/></g><g id="Group_1630" data-name="Group 1630"><path id="Path_1083" data-name="Path 1083" class="cls-15" d="M1035.94,1077.7a260.68,260.68,0,0,1-23.12-81.13c-15.32-132.69,68-301.31,158.55-319.13,51.56-10.14,109.8,27.78,102.45,53.47-7.84,27.4-93.56,52.31-105.38,37.85C1156.25,753.87,1215,688.37,1275,657c104.27-54.54,257.25-33,356.9,67.55"/><path id="Path_1084" data-name="Path 1084" class="cls-15" d="M1016.93,1084.74a18.21,18.21,0,0,1,9.32-2.16c9.12.53,14.32,8.87,16.85,7.26,2.11-1.35-1.5-7.22.15-14.77a23,23,0,0,1,7.48-12"/></g></g></g></svg>