<svg id="Layer_1" data-name="Layer 1" xmlns="http://www.w3.org/2000/svg" viewBox="0 0 150 150"><defs><style>.cls-1{fill:#3bceac;}.cls-2{fill:#ffd23f;}.cls-3{fill:#ee4266;}</style></defs><g id="Group_1578" data-name="Group 1578"><path id="Path_548" data-name="Path 548" class="cls-1" d="M80,18.79A53.32,53.32,0,0,1,66,41.13,53.53,53.53,0,0,1,44.21,53.75a51.41,51.41,0,0,1,33.9,35,78.79,78.79,0,0,1,36.28-35.22,55.69,55.69,0,0,1-21-13.15A55.78,55.78,0,0,1,80,18.79Z"/><path id="Path_549" data-name="Path 549" class="cls-2" d="M114.79,88.7A32.34,32.34,0,0,1,93.05,110a31.27,31.27,0,0,1,20.62,21.25,47.89,47.89,0,0,1,22.06-21.41,33.74,33.74,0,0,1-20.94-21.1Z"/><path id="Path_550" data-name="Path 550" class="cls-3" d="M32.35,87.27a23.65,23.65,0,0,1-15.85,15.5,22.76,22.76,0,0,1,15,15.49,34.88,34.88,0,0,1,16.08-15.61A24.63,24.63,0,0,1,32.35,87.27Z"/></g></svg>