<svg id="Layer_1" data-name="Layer 1" xmlns="http://www.w3.org/2000/svg" viewBox="0 0 100 100"><defs><style>.cls-1{fill:#3bceac;}</style></defs><path class="cls-1" d="M50,3.4A46.6,46.6,0,1,0,96.6,50,46.61,46.61,0,0,0,50,3.4ZM80.64,31a1.52,1.52,0,0,1-.32,1A24.61,24.61,0,0,1,75.45,37c-.28.21-.75.43-.75.82,0,10.06-2.57,20.11-9.9,27.4C55.46,74.52,41.45,77,29,73.61a34.49,34.49,0,0,1-6.92-2.77c-.73-.4-1.45-.81-2.16-1.28-.18-.14-.31-.28-.16-.37s.27-.08.83,0A24.45,24.45,0,0,0,31,67.86c1.81-.63,5.7-1.9,6.82-3.61,0,0,0,0,.08-.08-.45-.11-.91-.11-1.36-.19-3.38-1-7.89-2.66-10-8.35-.13-.34,0-.51.35-.44A14.62,14.62,0,0,0,31.61,55,7.32,7.32,0,0,1,30,54.55a12.89,12.89,0,0,1-7.94-10.26A8.94,8.94,0,0,1,22,42.85c0-.33.18-.44.47-.26A12.71,12.71,0,0,0,27.29,44a20,20,0,0,1-1.54-1.36c-3.69-3.49-5.12-10.61-2.17-15,.24-.36.4-.36.69,0C31,35.22,39.34,38.81,49.38,40.31c.26,0,.29,0,.25-.3a13.39,13.39,0,0,1,.13-5.24,12.65,12.65,0,0,1,2.48-5,13.41,13.41,0,0,1,4.16-3.4A13,13,0,0,1,61.55,25a12.4,12.4,0,0,1,5.42.87A13,13,0,0,1,70.51,28a5.74,5.74,0,0,1,.64.66.5.5,0,0,0,.5.13A31.28,31.28,0,0,0,79,26a.35.35,0,0,1,.33,0c.1.08.06.21,0,.32a11.42,11.42,0,0,1-2,3.73c-.59.72-2,2.52-3,2.68a25.49,25.49,0,0,0,6.16-1.75c.25-.12.25-.17.25,0Z"/></svg>