<svg id="Layer_1" data-name="Layer 1" xmlns="http://www.w3.org/2000/svg" viewBox="0 0 500 500"><defs><style>.cls-1{fill:#540d6e;}</style></defs><g id="Group_1559" data-name="Group 1559"><path class="cls-1" d="M403.45,407.66c-21.67-31.49-41.65-64.35-65.6-94-24.47-30.28-35.39-62.52-30.67-101,1.93-15.72-5.13-35.88,2.36-46.92,17.19-25.32-.4-21.1-14.12-21.3-28.69-.44-57.42-.58-86.1.06-13.83.31-39-6.25-17.68,22.74,2,2.64.24,7.81.74,11.74,7.55,59.55-5.15,112.31-46.61,158.19-19.58,21.66-33.9,48.1-50.55,72.41C70.29,446,72.47,462,106,489.74H393.79C428.09,460.78,429.85,446,403.45,407.66ZM210.94,184.08c.57-16.33,3.59-21.36,20.77-21.09,56.55.83,57.56.07,56.18,56.66-.85,34.76-.71,68.2,32,96.18H180.16C225.46,277.35,209.4,228.81,210.94,184.08Zm33.77,201.34c-.69,13.61-9.37,22.26-23.08,22.37-14.86.12-24-8.81-24.09-23.69,0-15.06,9.7-22.43,24.3-24.13C236.12,362.57,245.48,370.34,244.71,385.42Zm86.27,33c-.54,17.54-11.45,28.1-29,27.66s-28-11.38-27.66-29,11.78-26.49,29.09-28.3C320.42,391.46,331.53,400.65,331,418.43Z"/><path id="Path_528" data-name="Path 528" class="cls-1" d="M187.66,98.71c-.12-13.62,4.94-23.6,9.52-33.71,5.87-13,13.55-25.45,6-40.61-2.91-5.81-.48-11.36,5.69-13.52,6.71-2.35,10,2.48,12.57,7.83,7.65,15.81,4,30.84-2.62,45.88s-17.3,29.15-8.24,47.12c2.36,4.68-.06,9.56-5,11.88-6.59,3.1-10.63-.77-13.08-6.31C189.64,110.75,186.6,104.13,187.66,98.71Z"/><path id="Path_529" data-name="Path 529" class="cls-1" d="M273.87,35.05c-.37,14.41-4.69,23.75-8.9,33.21-6.06,13.6-14.72,26.7-6.63,42.81,3,5.86-.15,11.5-6.3,13.18-6.46,1.78-9.76-3-12.32-8.51C232.37,99.8,236,84.9,242.83,69.9s16.91-29.29,7.85-47.19c-2.33-4.62.55-9.55,5.56-11.59,6.72-2.73,10.72,1.5,12.79,7A170.74,170.74,0,0,1,273.87,35.05Z"/><path id="Path_530" data-name="Path 530" class="cls-1" d="M283.53,100.29c.13-14.7,4.58-24,8.78-33.45,6-13.6,14.79-26.69,6.71-42.81-2.93-5.84-.08-11.45,6.12-13.3,6.58-2,9.83,2.86,12.39,8.31,7.5,15.9,3.75,30.86-3,45.87s-17.07,29.23-8,47.16c2.38,4.67-.42,9.58-5.38,11.67-6.64,2.8-10.77-1.22-12.86-6.81A168.7,168.7,0,0,1,283.53,100.29Z"/></g></svg>