<svg id="Layer_1" data-name="Layer 1" xmlns="http://www.w3.org/2000/svg" viewBox="0 0 500 500"><defs><style>.cls-1{fill:#540d6e;}</style></defs><path class="cls-1" d="M24.76,103.13c54.95,0,109.92-1,164.83.54,20.83.59,41.49,7.22,67.14,12l49.35-16.88v30.24c-37.33,6.3-41,10.68-41,48.73,0,56.45,0,112.89,0,167.46H448.23V104.39h27V371.7H385q-37.68,0-75.36,0c-36.12.05-41.33,4.59-46.57,41.32H240.29c-11.21-41.32-11.21-41.32-55.4-41.32H24.76Zm30.16,28.4V345.58H236.55c0-60.58.45-124-.31-187.47-.19-16.29-11.28-26.19-27.6-26.37C157.76,131.17,106.88,131.53,54.92,131.53Z"/><path class="cls-1" d="M364.75,158.47c-.48-8.64-.89-16.25-1.39-25.27l-26.21-3.15v-26l25.14-1.79c.9-7.85,1.84-16,3-25.82h25.84c.72,7.92,1.46,16.15,2.32,25.64L419.47,104c.37,7.84.75,16,1.2,25.51l-27.22,3.26c-.73,8.17-1.46,16.39-2.28,25.69Z"/><path class="cls-1" d="M362,314.78H337.63c-1-8.33-2-16.53-3.23-26.23l-25.56-3V259.66l25-1.9c1-7.87,2-16.07,3.22-25.83H363c.64,8,1.3,16.27,2,25.58l26.24,2.05c.35,7.83.72,16,1.14,25.52l-26.79,3.13C364.37,297.11,363.18,305.92,362,314.78Z"/><path class="cls-1" d="M193.05,229.76l-25,1.18c-1.05,8.21-2.1,16.41-3.34,26.13h-25.9c-.6-8.17-1.21-16.38-1.89-25.52l-25.61-2.14V203.6l25.53-2.9c.61-8.35,1.22-16.56,1.89-25.77h25.49c1,7.7,2,15.9,3.27,25.59l25.55,2.89Z"/></svg>