<svg id="Layer_1" data-name="Layer 1" xmlns="http://www.w3.org/2000/svg" viewBox="0 0 150 150"><defs><style>.cls-1{fill:#540d6e;}.cls-2{fill:#ee4266;}.cls-3{fill:#ffd23f;}</style></defs><g id="Group_1578" data-name="Group 1578"><path id="Path_548" data-name="Path 548" class="cls-1" d="M72.21,16.47A53.52,53.52,0,0,1,58.28,38.81,53.39,53.39,0,0,1,36.46,51.43,51.45,51.45,0,0,1,70.37,86.38a78.79,78.79,0,0,1,36.28-35.22A55.79,55.79,0,0,1,85.62,38,55.69,55.69,0,0,1,72.21,16.47Z"/><path id="Path_549" data-name="Path 549" class="cls-2" d="M113.67,88.7A32.36,32.36,0,0,1,91.94,110a31.32,31.32,0,0,1,20.62,21.25,47.93,47.93,0,0,1,22.05-21.41,33.8,33.8,0,0,1-20.94-21.1Z"/><path id="Path_550" data-name="Path 550" class="cls-3" d="M24.6,85a23.56,23.56,0,0,1-15.84,15.5,22.82,22.82,0,0,1,15,15.49,34.88,34.88,0,0,1,16.08-15.61A24.68,24.68,0,0,1,24.6,85Z"/></g></svg>