<svg id="Layer_1" data-name="Layer 1" xmlns="http://www.w3.org/2000/svg" viewBox="0 0 100 100"><defs><style>.cls-1{fill:#3bceac;}</style></defs><path class="cls-1" d="M50,3.6A46.6,46.6,0,1,0,96.6,50.2,46.6,46.6,0,0,0,50,3.6ZM72.22,33.9c-.13,1.89-1.21,8.49-2.29,15.62-1.62,10.1-3.37,21.15-3.37,21.15S66.29,73.76,64,74.3,58,72.42,57.27,71.88s-10.1-6.46-13.6-9.43c-.94-.81-2-2.42.14-4.31,4.84-4.44,10.63-10,14.14-13.46,1.61-1.62,3.23-5.39-3.51-.81-9.56,6.6-19,12.79-19,12.79s-2.16,1.35-6.2.14S20.51,54,20.51,54s-3.23-2,2.29-4.18c0,0,23.29-9.56,31.37-12.92,3.1-1.35,13.61-5.66,13.61-5.66S72.62,29.32,72.22,33.9Z"/></svg>