<svg id="Layer_1" data-name="Layer 1" xmlns="http://www.w3.org/2000/svg" xmlns:xlink="http://www.w3.org/1999/xlink" viewBox="0 0 1317.81 1001.41"><defs><style>.cls-1,.cls-3,.cls-5{fill:none;}.cls-2{clip-path:url(#clip-path);}.cls-3{stroke:#540d6e;}.cls-3,.cls-5{stroke-linecap:round;stroke-linejoin:round;stroke-width:7px;}.cls-4{clip-path:url(#clip-path-2);}.cls-5{stroke:#eaeaea;}</style><clipPath id="clip-path"><rect class="cls-1" x="-10.21" y="-10.21" width="1328.02" height="1012.29"/></clipPath><clipPath id="clip-path-2"><rect class="cls-1" x="171.57" y="548.36" width="1063.4" height="453.72"/></clipPath></defs><g class="cls-2"><g id="Group_1551" data-name="Group 1551"><g id="Group_1536" data-name="Group 1536"><g id="Group_1511" data-name="Group 1511"><path id="Path_461" data-name="Path 461" class="cls-3" d="M188.06,406.84C240.21,650.17,572.46,864.78,803,930.43"/><path id="Path_462" data-name="Path 462" class="cls-3" d="M297.33,334.66c185.42,238.23,478.4,335.17,767.36,309.88"/><path id="Path_463" data-name="Path 463" class="cls-3" d="M235.15,404.49c109.11,188.49,421.46,470.17,654,410.8"/><path id="Path_464" data-name="Path 464" class="cls-3" d="M258.78,389.28C335.57,580.78,719.66,791,933.29,737.71"/><path id="Path_465" data-name="Path 465" class="cls-3" d="M865.59,1101.24C789,1135.16,740.87,946.09,848.77,937.86"/><path id="Path_466" data-name="Path 466" class="cls-3" d="M875.4,984.48c-41.77-24.25-.89-85.38,39.61-94.08"/><path id="Path_467" data-name="Path 467" class="cls-3" d="M875.88,917.09c-32.91-6.23-35.6-49.68-17.45-73.52"/><path id="Path_468" data-name="Path 468" class="cls-3" d="M916.75,856C875,831.7,940,751.28,990.57,793.57"/><path id="Path_469" data-name="Path 469" class="cls-3" d="M1108.93,578.72c-55.58,23.57-60.81,126.89.47,145.29"/><path id="Path_470" data-name="Path 470" class="cls-3" d="M1073.7,689.32c-77.85-6.54-48.73,113.49,2,140.8"/><path id="Path_471" data-name="Path 471" class="cls-3" d="M987.26,840c-11.77-31.54,8-74.84,44-77.58"/><path id="Path_472" data-name="Path 472" class="cls-3" d="M1116.63,761.51c-14.83-22.57-10.07-58.48,21.41-62.75"/><path id="Path_473" data-name="Path 473" class="cls-3" d="M1124.22,533.9c-28.53,10.28-12.5,73.3,17.46,73.51"/><path id="Path_475" data-name="Path 475" class="cls-3" d="M978.13,1072.08c-32.8-21.2-60.59-115.75,8.28-112.27"/><path id="Path_476" data-name="Path 476" class="cls-3" d="M986.2,989.76c-10.34-21,3.33-46.41,25.84-53.73"/><path id="Path_477" data-name="Path 477" class="cls-3" d="M992.48,949.35c-25.37-13.65-22.05-60.06,6.54-77.84"/><path id="Path_479" data-name="Path 479" class="cls-3" d="M1149.43,570c-26.47-69.08,77-86.33,117.08-35.12"/></g><g id="Group_1535" data-name="Group 1535"><g id="Group_1533" data-name="Group 1533"><g id="Group_1512" data-name="Group 1512"><path id="Path_480" data-name="Path 480" class="cls-3" d="M86.32,174.19S51.51,285.43,50.55,290.92c-.46,2.64,33.93,126.18,35.74,132.86s5.06-89.89,9-98.55c2.84-6.34,49.16-59.81,49.16-59.81Z"/><path id="Path_481" data-name="Path 481" class="cls-3" d="M170.46,132.86s109.32,40.45,114.24,43c2.37,1.25,79.13,104,83.31,109.48s-74.24-50.93-83.48-53.13c-6.77-1.63-77.39,2.35-77.39,2.35Z"/></g><g id="Group_1514" data-name="Group 1514"><path id="Path_482" data-name="Path 482" class="cls-3" d="M176.89,332.75l21.77,15.6,41-20.12,1-26.76Z"/><g id="Group_1513" data-name="Group 1513"><path id="Path_483" data-name="Path 483" class="cls-3" d="M214.7,375.21,251,357.37c44.7,42.4,25,91.28,25,91.28C216.71,434.65,214.7,375.21,214.7,375.21Z"/><path id="Path_484" data-name="Path 484" class="cls-3" d="M245.3,360.17l-24.92,12.25c4.93,14.56,16.29,37.62,40.7,48.28C261.08,420.7,267,392.31,245.3,360.17Z"/><path id="Path_485" data-name="Path 485" class="cls-3" d="M247.06,393.44s1.54-13.26-6.61-30.88L225.34,370C229.83,378.45,236.75,387.77,247.06,393.44Z"/></g><path id="Path_486" data-name="Path 486" class="cls-3" d="M255.44,355.19l-45.11,22.15L206.71,367l42.78-21Z"/><path id="Path_487" data-name="Path 487" class="cls-3" d="M252,344.81l-7.15-14.57a4.11,4.11,0,0,0-5.5-1.87L199,348.2a4.11,4.11,0,0,0-1.88,5.5l7.14,14.56Z"/></g><path id="Path_488" data-name="Path 488" class="cls-3" d="M211.31,233.29l-70.48,34.63c41.22,52.46,14.88,53.11,4.29,45.19a46.15,46.15,0,0,1,4.19,5.75,264.27,264.27,0,0,1,15.21,23.61C171.94,355.6,172,364,172,364s4.78-16.43,36.11-31.82c2.64-1.3,4.8-2.41,6.56-3.39,1.73-.74,3.83-1.71,6.38-3,28.28-13.88,47.24-9.13,47.25-9.13-5.43-7.56-6.6-5.16-12.47-19.05a273,273,0,0,1-9.39-26.48,46,46,0,0,1-2-6.83h0C244.26,277.54,227.63,298,211.31,233.29Z"/><path id="Path_489" data-name="Path 489" class="cls-3" d="M190,294.7h0l7.83-3.8,0,0c29.54-17.52,27.47-54.9,27.46-55.12C222,216.08,245.24,94.58,54.12,8.15c-44.2,183.13,62,260,75.57,274.54C129.91,282.88,158.13,307.23,190,294.7Z"/><g id="Group_1515" data-name="Group 1515"><path id="Path_490" data-name="Path 490" class="cls-3" d="M92.43,80.34a49.17,49.17,0,1,0,65.81,22.46A49.17,49.17,0,0,0,92.43,80.34Zm38.35,78.06A37.8,37.8,0,1,1,148,107.8a37.79,37.79,0,0,1-17.26,50.6Z"/><path id="Path_491" data-name="Path 491" class="cls-3" d="M148.05,107.8A37.81,37.81,0,1,1,97.44,90.54,37.81,37.81,0,0,1,148.05,107.8Z"/></g><g id="Group_1532" data-name="Group 1532"><g id="Group_1523" data-name="Group 1523"><g id="Group_1522" data-name="Group 1522"><g id="Group_1516" data-name="Group 1516"><path id="Path_492" data-name="Path 492" class="cls-3" d="M242.31,245.56c9.11-4.48,23.63,10.2,35.89,26s14.08,37.09,14.08,37.09L277.34,316l-.67.32-14.94,7.35s-15.4-13.62-20.45-32.68C236.05,271.3,233,250.12,242.31,245.56Z"/></g><g id="Group_1519" data-name="Group 1519"><g id="Group_1517" data-name="Group 1517"><path id="Path_493" data-name="Path 493" class="cls-3" d="M297.7,332.19l-21.31,10.47c4.22,37.12,34.35,46.17,34.35,46.17C325.13,355.53,297.7,332.19,297.7,332.19Z"/></g><g id="Group_1518" data-name="Group 1518"><path id="Path_494" data-name="Path 494" class="cls-3" d="M279.74,341l14.63-7.19c5.15,7.81,12,21.87,8.42,37.43C302.79,371.27,287.27,363.36,279.74,341Z"/></g></g><g id="Group_1520" data-name="Group 1520"><rect id="Rectangle_8" data-name="Rectangle 8" class="cls-3" x="264.54" y="315.45" width="31.22" height="14.27" transform="translate(-113.48 156.46) rotate(-26.15)"/></g><g id="Group_1521" data-name="Group 1521"><path id="Path_495" data-name="Path 495" class="cls-3" d="M274.12,343.77l26.48-13-4.75-8-25.11,12.34Z"/></g></g></g><g id="Group_1531" data-name="Group 1531"><g id="Group_1530" data-name="Group 1530"><g id="Group_1524" data-name="Group 1524"><path id="Path_496" data-name="Path 496" class="cls-3" d="M131.71,299.88c9.11-4.47,23.63,10.2,35.89,26S181.68,363,181.68,363l-14.94,7.34-.67.33L151.13,378s-15.4-13.61-20.45-32.67C125.45,325.62,122.42,304.45,131.71,299.88Z"/></g><g id="Group_1527" data-name="Group 1527"><g id="Group_1525" data-name="Group 1525"><path id="Path_497" data-name="Path 497" class="cls-3" d="M187.11,386.52,165.79,397c4.23,37.12,34.36,46.17,34.36,46.17C214.53,409.85,187.11,386.52,187.11,386.52Z"/></g><g id="Group_1526" data-name="Group 1526"><path id="Path_498" data-name="Path 498" class="cls-3" d="M169.15,395.35l14.62-7.2c5.15,7.82,12,21.88,8.43,37.45C192.2,425.59,176.68,417.69,169.15,395.35Z"/></g></g><g id="Group_1528" data-name="Group 1528"><rect id="Rectangle_9" data-name="Rectangle 9" class="cls-3" x="153.94" y="369.77" width="31.23" height="14.28" transform="translate(-148.78 113.34) rotate(-26.16)"/></g><g id="Group_1529" data-name="Group 1529"><path id="Path_499" data-name="Path 499" class="cls-3" d="M163.53,398.11l26.48-13-4.75-8-25.11,12.34Z"/></g></g></g></g></g><g id="Group_1534" data-name="Group 1534"><path id="Path_500" data-name="Path 500" class="cls-3" d="M62.66,19.72c25.08,13.05,49.62,25,72.51,44.43a254.91,254.91,0,0,1,75.07,103.2"/><path id="Path_501" data-name="Path 501" class="cls-3" d="M78.86,372.34c-3.13-18.86-5.73-38-11.34-56.3-4-13.67-6.67-20.51-2.48-35.48,4.2-13.62,6.48-28.34,13.12-41.12"/><path id="Path_502" data-name="Path 502" class="cls-3" d="M225.22,166.53A374.5,374.5,0,0,1,233.3,219c14.72,2.3,25.5,0,40-1,9.56-1.29,12.17.55,20.59,6.62,10.59,7.71,29.83,26.12,39.87,34.1"/><path id="Path_503" data-name="Path 503" class="cls-3" d="M87.43,136.6a168.6,168.6,0,0,1,13-38"/><path id="Path_504" data-name="Path 504" class="cls-3" d="M94.48,145.8c4.7-18.76,9.91-36.51,15.12-54.26"/><path id="Path_505" data-name="Path 505" class="cls-3" d="M101,154c4.72-21.31,12-42.6,19.25-63.89"/><path id="Path_506" data-name="Path 506" class="cls-3" d="M110.69,153c6.71-14.69,8.38-34.49,16.1-49.68"/></g></g></g><g class="cls-4"><g id="Mask_Group_1" data-name="Mask Group 1"><g id="Group_1537" data-name="Group 1537"><g id="Group_1511-2" data-name="Group 1511-2"><path id="Path_461-2" data-name="Path 461-2" class="cls-5" d="M188.06,406.84C240.21,650.17,572.46,864.78,803,930.43"/><path id="Path_462-2" data-name="Path 462-2" class="cls-5" d="M297.33,334.66c185.42,238.23,478.4,335.17,767.36,309.88"/><path id="Path_463-2" data-name="Path 463-2" class="cls-5" d="M235.15,404.49c109.11,188.49,421.46,470.17,654,410.8"/><path id="Path_464-2" data-name="Path 464-2" class="cls-5" d="M258.78,389.28C335.57,580.78,719.66,791,933.29,737.71"/><path id="Path_465-2" data-name="Path 465-2" class="cls-5" d="M865.59,1101.24C789,1135.16,740.87,946.09,848.77,937.86"/><path id="Path_466-2" data-name="Path 466-2" class="cls-5" d="M875.4,984.48c-41.77-24.25-.89-85.38,39.61-94.08"/><path id="Path_467-2" data-name="Path 467-2" class="cls-5" d="M875.88,917.09c-32.91-6.23-35.6-49.68-17.45-73.52"/><path id="Path_468-2" data-name="Path 468-2" class="cls-5" d="M916.75,856C875,831.7,940,751.28,990.57,793.57"/><path id="Path_469-2" data-name="Path 469-2" class="cls-5" d="M1108.93,578.72c-55.58,23.57-60.81,126.89.47,145.29"/><path id="Path_470-2" data-name="Path 470-2" class="cls-5" d="M1073.7,689.32c-77.85-6.54-48.73,113.49,2,140.8"/><path id="Path_471-2" data-name="Path 471-2" class="cls-5" d="M987.26,840c-11.77-31.54,8-74.84,44-77.58"/><path id="Path_472-2" data-name="Path 472-2" class="cls-5" d="M1116.63,761.51c-14.83-22.57-10.07-58.48,21.41-62.75"/><path id="Path_473-2" data-name="Path 473-2" class="cls-5" d="M1124.22,533.9c-28.53,10.28-12.5,73.3,17.46,73.51"/><path id="Path_475-2" data-name="Path 475-2" class="cls-5" d="M978.13,1072.08c-32.8-21.2-60.59-115.75,8.28-112.27"/><path id="Path_476-2" data-name="Path 476-2" class="cls-5" d="M986.2,989.76c-10.34-21,3.33-46.41,25.84-53.74"/><path id="Path_477-2" data-name="Path 477-2" class="cls-5" d="M992.48,949.35c-25.37-13.65-22.05-60.06,6.54-77.84"/><path id="Path_479-2" data-name="Path 479-2" class="cls-5" d="M1149.43,570c-26.47-69.08,77-86.33,117.08-35.12"/></g><g id="Group_1535-2" data-name="Group 1535-2"><g id="Group_1533-2" data-name="Group 1533-2"><g id="Group_1512-2" data-name="Group 1512-2"><path id="Path_480-2" data-name="Path 480-2" class="cls-5" d="M86.32,174.19S51.51,285.43,50.55,290.92c-.46,2.64,33.93,126.18,35.74,132.86s5.06-89.89,9-98.55c2.84-6.34,49.16-59.81,49.16-59.81Z"/><path id="Path_481-2" data-name="Path 481-2" class="cls-5" d="M170.46,132.86s109.32,40.45,114.24,43c2.37,1.25,79.13,104,83.31,109.48s-74.24-50.93-83.48-53.13c-6.77-1.63-77.39,2.35-77.39,2.35Z"/></g><g id="Group_1514-2" data-name="Group 1514-2"><path id="Path_482-2" data-name="Path 482-2" class="cls-5" d="M176.89,332.75l21.77,15.6,41-20.12,1-26.76Z"/><g id="Group_1513-2" data-name="Group 1513-2"><path id="Path_483-2" data-name="Path 483-2" class="cls-5" d="M214.7,375.21,251,357.37c44.7,42.4,25,91.28,25,91.28C216.71,434.65,214.7,375.21,214.7,375.21Z"/><path id="Path_484-2" data-name="Path 484-2" class="cls-5" d="M245.3,360.17l-24.92,12.25c4.93,14.56,16.29,37.62,40.7,48.28C261.08,420.7,267,392.31,245.3,360.17Z"/><path id="Path_485-2" data-name="Path 485-2" class="cls-5" d="M247.06,393.44s1.54-13.26-6.61-30.88L225.34,370C229.83,378.45,236.75,387.77,247.06,393.44Z"/></g><path id="Path_486-2" data-name="Path 486-2" class="cls-5" d="M255.44,355.19l-45.11,22.15L206.71,367l42.78-21Z"/><path id="Path_487-2" data-name="Path 487-2" class="cls-5" d="M252,344.81l-7.15-14.57a4.11,4.11,0,0,0-5.5-1.87L199,348.2a4.11,4.11,0,0,0-1.88,5.5l7.14,14.56Z"/></g><path id="Path_488-2" data-name="Path 488-2" class="cls-5" d="M211.31,233.29l-70.48,34.62c41.22,52.47,14.88,53.12,4.29,45.2a46.15,46.15,0,0,1,4.19,5.75,265.56,265.56,0,0,1,15.21,23.6C171.94,355.6,172,364,172,364s4.78-16.43,36.11-31.82c2.64-1.3,4.8-2.41,6.56-3.39,1.73-.74,3.83-1.71,6.38-3,28.28-13.88,47.24-9.13,47.25-9.13-5.43-7.56-6.6-5.16-12.47-19.05a273,273,0,0,1-9.39-26.48,46,46,0,0,1-2-6.83h0C244.26,277.53,227.63,298,211.31,233.29Z"/><path id="Path_489-2" data-name="Path 489-2" class="cls-5" d="M190,294.7h0l7.83-3.8,0,0c29.54-17.52,27.47-54.9,27.46-55.12C222,216.08,245.24,94.58,54.12,8.15c-44.2,183.13,62,259.94,75.57,274.54C129.91,282.88,158.13,307.23,190,294.7Z"/><g id="Group_1515-2" data-name="Group 1515-2"><path id="Path_490-2" data-name="Path 490-2" class="cls-5" d="M92.43,80.34a49.17,49.17,0,1,0,65.81,22.46A49.17,49.17,0,0,0,92.43,80.34Zm38.35,78.06A37.8,37.8,0,1,1,148,107.8a37.79,37.79,0,0,1-17.26,50.6Z"/><path id="Path_491-2" data-name="Path 491-2" class="cls-5" d="M148.05,107.8A37.81,37.81,0,1,1,97.44,90.54,37.81,37.81,0,0,1,148.05,107.8Z"/></g><g id="Group_1532-2" data-name="Group 1532-2"><g id="Group_1523-2" data-name="Group 1523-2"><g id="Group_1522-2" data-name="Group 1522-2"><g id="Group_1516-2" data-name="Group 1516-2"><path id="Path_492-2" data-name="Path 492-2" class="cls-5" d="M242.31,245.56c9.11-4.48,23.63,10.2,35.89,26s14.08,37.09,14.08,37.09L277.34,316l-.67.32-14.94,7.35s-15.4-13.63-20.45-32.68C236.05,271.29,233,250.12,242.31,245.56Z"/></g><g id="Group_1519-2" data-name="Group 1519-2"><g id="Group_1517-2" data-name="Group 1517-2"><path id="Path_493-2" data-name="Path 493-2" class="cls-5" d="M297.7,332.19l-21.31,10.47c4.22,37.12,34.35,46.17,34.35,46.17C325.13,355.53,297.7,332.19,297.7,332.19Z"/></g><g id="Group_1518-2" data-name="Group 1518-2"><path id="Path_494-2" data-name="Path 494-2" class="cls-5" d="M279.74,341l14.63-7.19c5.15,7.81,12,21.87,8.42,37.43C302.79,371.27,287.27,363.36,279.74,341Z"/></g></g><g id="Group_1520-2" data-name="Group 1520-2"><rect id="Rectangle_8-2" data-name="Rectangle 8-2" class="cls-5" x="264.54" y="315.45" width="31.22" height="14.27" transform="translate(-113.48 156.46) rotate(-26.15)"/></g><g id="Group_1521-2" data-name="Group 1521-2"><path id="Path_495-2" data-name="Path 495-2" class="cls-5" d="M274.12,343.77l26.48-13-4.75-8-25.11,12.34Z"/></g></g></g><g id="Group_1531-2" data-name="Group 1531-2"><g id="Group_1530-2" data-name="Group 1530-2"><g id="Group_1524-2" data-name="Group 1524-2"><path id="Path_496-2" data-name="Path 496-2" class="cls-5" d="M131.71,299.88c9.11-4.47,23.63,10.2,35.89,26S181.68,363,181.68,363l-14.94,7.34-.67.33L151.13,378s-15.4-13.61-20.45-32.67C125.45,325.62,122.42,304.45,131.71,299.88Z"/></g><g id="Group_1527-2" data-name="Group 1527-2"><g id="Group_1525-2" data-name="Group 1525-2"><path id="Path_497-2" data-name="Path 497-2" class="cls-5" d="M187.11,386.52,165.79,397c4.23,37.12,34.36,46.17,34.36,46.17C214.53,409.85,187.11,386.52,187.11,386.52Z"/></g><g id="Group_1526-2" data-name="Group 1526-2"><path id="Path_498-2" data-name="Path 498-2" class="cls-5" d="M169.15,395.35l14.62-7.2c5.15,7.82,12,21.88,8.43,37.45C192.2,425.59,176.68,417.69,169.15,395.35Z"/></g></g><g id="Group_1528-2" data-name="Group 1528-2"><rect id="Rectangle_9-2" data-name="Rectangle 9-2" class="cls-5" x="153.94" y="369.77" width="31.23" height="14.28" transform="translate(-148.78 113.34) rotate(-26.16)"/></g><g id="Group_1529-2" data-name="Group 1529-2"><path id="Path_499-2" data-name="Path 499-2" class="cls-5" d="M163.53,398.11l26.48-13-4.75-8-25.11,12.34Z"/></g></g></g></g></g><g id="Group_1534-2" data-name="Group 1534-2"><path id="Path_500-2" data-name="Path 500-2" class="cls-5" d="M62.66,19.72c25.08,13.05,49.62,25,72.51,44.43a254.91,254.91,0,0,1,75.07,103.2"/><path id="Path_501-2" data-name="Path 501-2" class="cls-5" d="M78.86,372.34c-3.13-18.86-5.73-38-11.34-56.3-4-13.67-6.67-20.51-2.48-35.49,4.2-13.61,6.48-28.33,13.12-41.11"/><path id="Path_502-2" data-name="Path 502-2" class="cls-5" d="M225.22,166.53A374.27,374.27,0,0,1,233.3,219c14.72,2.3,25.5,0,40-1,9.56-1.29,12.17.55,20.59,6.62,10.59,7.71,29.83,26.12,39.87,34.1"/><path id="Path_503-2" data-name="Path 503-2" class="cls-5" d="M87.43,136.6a168.6,168.6,0,0,1,13-38"/><path id="Path_504-2" data-name="Path 504-2" class="cls-5" d="M94.48,145.8c4.7-18.76,9.91-36.51,15.12-54.26"/><path id="Path_505-2" data-name="Path 505-2" class="cls-5" d="M101,154c4.72-21.31,12-42.6,19.25-63.89"/><path id="Path_506-2" data-name="Path 506-2" class="cls-5" d="M110.69,153c6.71-14.69,8.38-34.49,16.1-49.68"/></g></g></g></g></g></g></g></svg>